<?xml version="1.0" encoding="utf-8"?>
<!-- Generator: Adobe Illustrator 23.0.6, SVG Export Plug-In . SVG Version: 6.00 Build 0)  -->
<svg version="1.1" id="Calque_1" xmlns="http://www.w3.org/2000/svg" xmlns:xlink="http://www.w3.org/1999/xlink" x="0px" y="0px"
	 viewBox="0 0 1920 159.8" style="enable-background:new 0 0 1920 159.8;" xml:space="preserve">
<style type="text/css">
	.st0{fill-rule:evenodd;clip-rule:evenodd;fill:#D4AD40;}
	.st1{clip-path:url(#SVGID_2_);}
	.st2{fill-rule:evenodd;clip-rule:evenodd;fill:#C49A24;}
	.st3{clip-path:url(#SVGID_4_);}
</style>
<g transform="matrix(1.09848,0,0,1.09848,-19.9935,-168.758)">
	<g id="WOOD_1_">
		<path class="st0" d="M1768.5,159.4l0.8,0l9.3,280.6c-75.3,0.6-166.3,2.2-273.5,2.1c-99.7,0-217.2-3.4-371.8-3.9
			c-205.5-0.7-391.4,2.7-568.1,3.5c-36.4,0.2-200-3.2-234.2-3.4c-148.9-0.8-261.2-2.1-316.9,0c-4.1,0.2-2.2-247.1-2-267.5l-0.8,0
			l-0.1-10.5c-4.7-1,268.4,5.9,335.1,4c159.1-4.7,525.5-2.3,576.1-1.8c10.9,0.1,103.6,0.1,188.5-1c84.9-1,240.7-4.7,439.5-2.9
			c63.5,0.6,217.9-5.1,217.9-5.1L1768.5,159.4z"/>
		<g>
			<defs>
				<path id="SVGID_3_" d="M1768.5,159.4l0.8,0l9.3,280.6c-75.3,0.6-166.3,2.2-273.5,2.1c-99.7,0-217.2-3.4-371.8-3.9
					c-205.5-0.7-391.4,2.7-568.1,3.5c-36.4,0.2-200-3.2-234.2-3.4c-148.9-0.8-261.2-2.1-316.9,0c-4.1,0.2-2.2-247.1-2-267.5l-0.8,0
					l-0.1-10.5c-4.7-1,268.4,5.9,335.1,4c159.1-4.7,525.5-2.3,576.1-1.8c10.9,0.1,103.6,0.1,188.5-1c84.9-1,240.7-4.7,439.5-2.9
					c63.5,0.6,217.9-5.1,217.9-5.1L1768.5,159.4z"/>
			</defs>
			<clipPath id="SVGID_2_">
				<use xlink:href="#SVGID_3_"  style="overflow:visible;"/>
			</clipPath>
			<g class="st1">
				<g>
					<path class="st2" d="M-5.5,169.3c0,0,238.2,4.4,304.9,3s174.3-1.4,344.2-4c187.1-2.9,423.9,1.8,515.3-0.3
						c91.3-2.1,279-5.5,421.4-1.9c142.4,3.6,218.6-6.7,218.6-6.7l-4.1-27.7L-6.2,137.9L-5.5,169.3z"/>
				</g>
				<g id="Calque4_1_">
					<g transform="matrix(1,0,0,1,-3.92781,-0.192282)">
						<path class="st2" d="M-42.9,218.4c8.1,0.7,15.5,1.6,23.8,2.1c8,0.4,16.3,0.5,24.4,0.6c64.9,1.4,129.9,1.3,195.2,1.6
							c63.5,0.2,126.8,0.1,190.1-0.3c17.7-0.1,35.5-0.2,53.2-0.4c41.4-0.4,82.6-1.4,123.9-1.8c88.4-0.9,177-0.8,265.6-0.9
							c114-0.1,228.1-0.1,342.2-0.4c48.8-0.1,97.7-0.4,146.5-0.4c85.3,0,170.3-0.2,255.3,0.2c34.1,0.2,68.1,0.5,102.2,0.8
							c51.1,0.4,102.2,0.8,153.4,1c9.5,0,19,0.2,28.4,0.1c5.7-0.1,11.4-0.1,17-0.5c4.1-0.2,7.3-0.7,11.3-1c4.3,0,7.7-1,7.6-2.1
							c-0.1-1.1-3.7-2-8-2c-4-0.3-7.3-0.7-11.4-0.9c-5.6-0.3-11.3-0.3-17-0.3c-85.2-0.3-170,1.7-255,1.6c-28.4,0-56.7-0.2-85.1-0.4
							c-66.1-0.4-132.3-1.2-198.6-1.6c-48.9-0.3-97.9-0.6-146.9-0.5c-114.1,0.3-228.2,1.8-342.2,2.6c-84.5,0.6-168.7,1.9-253,2.2
							c-50.6,0.2-101.2-0.3-151.8-0.3c-75.7,0-151.5,0.3-227.4-0.2c-73.1-0.1-145.5-1.8-218.5-1.2c-8.5,0.1-16.2,0.6-24.7,0.9
							c-1.4,0-2.7,0.2-2.9,0.6C-45.3,218.1-44.3,218.4-42.9,218.4z"/>
					</g>
					<path class="st2" d="M1101.9,165.3c1.6,0.4-2.3-0.2-5.8-0.4c-1.4-0.1-2.7-0.1-3.6,0l-23.7,0.7c-14.8,0.9-31.2,0.9-46.7,1.5
						c-7,0.2-13.9,0.6-20.3,1.1c-18.6,1.7-38.1,2.7-57.9,3.4c-46.2,1.7-94.2,2-138.6,5.2c-0.2,0-0.3,0.1-0.2,0.1
						c0,0,0.2,0.1,0.4,0.1c44.8-2.7,92.9-2.4,139.2-3.8c20.3-0.6,40.2-1.6,59.3-3.2c6.1-0.6,12.5-0.9,19.1-1.2
						c15.6-0.7,32.1-1,46.8-2.1l23.4-0.9c0.9-0.1,2.5,0,4.1,0c2.1,0,4.1-0.1,4.8-0.1c0.6-0.1,0.9-0.2-0.1-0.3
						C1102,165.2,1102,165.2,1101.9,165.3C1101.9,165.3,1101.9,165.3,1101.9,165.3z"/>
					<path class="st2" d="M1607.4,257.6c0,0-0.1,0-0.1,0C1607.5,257.6,1607.5,257.6,1607.4,257.6L1607.4,257.6c0,0,0,0-0.1,0l1.3,0
						c0.1,0,0.2,0,0.2,0c0,0-0.1,0-0.2,0c-0.4,0-1.6-0.1-1.4-0.1C1607.2,257.6,1607.3,257.6,1607.4,257.6z"/>
					<path class="st2" d="M495.3,220.9L495.3,220.9c0.1,0.1,0.1,0.1,0.2,0.1c0.1,0,0.1,0,0.1,0l0-0.1c0,0-0.1,0-0.1,0
						C495.4,220.9,495.3,220.9,495.3,220.9z"/>
					<path class="st2" d="M528.6,203.1l47.9-3.2c12-0.9,24.7-1.5,37.6-2c19.3-0.7,39-1.1,57.5-1.6c48.7-1.2,98.5-1.9,148.3-1.8
						c49.8,0.1,99.5,1,147.9,2.7c73.7,2.7,148.1,5.1,222.8,6.6c32,0.6,64,1.1,96,1.4c32.1,0.3,64.1,0.4,96.2,0.4
						c75-0.1,149.8-1.1,224.2-3c29.4-0.8,59-1.9,88.5-3.3c44-2.1,87.9-4.6,131.2-6.7c1.1,0,1.8-0.3,1.6-0.6
						c-0.2-0.3-1.2-0.5-2.3-0.4c-50.8,2-102.5,4.4-154,6.3c-22.1,0.8-44.2,1.5-66.1,2c-74.1,1.6-148.6,2.2-223.2,2.1
						c-31.9-0.1-63.8-0.2-95.7-0.5c-31.9-0.3-63.8-0.7-95.7-1.1c-74.7-1.1-149.1-2.6-222.9-4.7c-48.8-1.5-98.7-2-148.7-1.9
						c-49.9,0.1-99.8,0.9-148.5,2.2c-18.5,0.5-38.2,0.9-57.5,1.7c-13,0.5-25.7,1.2-37.7,2.2c-15.9,1.3-34.7,2.4-43.1,3
						c-3.2,0.2-4.9,0.4-4.6,0.5C528.5,203.1,528.5,203.1,528.6,203.1C528.6,203.1,528.7,203.1,528.6,203.1z"/>
					<path class="st2" d="M1503,178.6c2.1,0.1,3.7,0.6,3.7,1.2c0.6,0.9,0.1,1.7-1.7,2.5c-0.7,0.3-1.7,0.5-2.7,0.8
						c-1.6,0.4-3.4,0.7-5.4,1c-5.4,0.9-12.4,2-21.4,2.5c-3.7,0.2-7.7,0.3-11.9,0.5c-10.7,0.3-22.5,0.4-34.4,0.5
						c-29.2,0.2-58.8-0.3-72-1.4c-5-0.4-7.9-1-9-1.5c-7-3,6.3-6,28.9-7.9c2.4-0.2,4.8-0.4,7.3-0.6c9.2-0.6,19.5-0.9,29.7-1.2
						c25.1-0.7,49.5-0.5,57.4,0c5.8,0.4,15,0.3,21.3,1.1C1497.9,176.7,1501.6,177.5,1503,178.6z M1494,181.2
						c-1.3-0.4-2.4-0.7-3.1-0.9c-0.2-0.1-0.6,0.1-0.9,0c-0.8-0.1-1.9,0-2.9-0.1c-6.2-0.4-14.5-0.6-19.8-1
						c-8.1-0.5-35.1-0.5-60.7,0.2c-6.3,0.2-12.5,0.4-18.4,0.6c-2.7,0.1-5.3,0.2-7.8,0.3c-8.6,0.3-16,0.6-20.9,1.3
						c-3.4,0.5-5.5,1.1-4.1,1.9c0.4,0.2,2.1,0.4,4.4,0.6c12.9,1.2,42.3,1.9,70.7,1.4c15.1-0.3,29.7-1.3,41.8-2.1
						c1.5-0.1,3-0.2,4.5-0.3c6.2-0.4,11.6-0.8,15.2-1.5C1492.9,181.6,1493.5,181.4,1494,181.2z"/>
					<g transform="matrix(1,0,0,1,5.42671,-24.7659)">
						<path class="st2" d="M-42.5,298.6c6.1,0.9,9.7,2,16.4,2.5c49,4,102.3,1.5,153.5,1.6c92.6,0.3,185.3-0.5,278-1.3
							c39.6-0.4,79.2-0.8,118.8-1.1c19.8-0.2,39.5-0.5,59.3-0.6c106.8-0.6,213.7,0.1,320.6-0.2c71.2-0.2,142.5-0.4,213.7-0.9
							c131.9-0.8,263.8-2.2,395.6-3.4c35.7-0.5,71.2-1.3,106.8-1.6c52.4-0.5,104.8-0.7,157.2-0.2c5.9,0.1,11.6,0.3,17.5,0.3
							c24.9,0.2,49.8-0.2,74.7-0.2c7.1,0,14.2,0,21.3-0.1c10.7-0.1,21.3-0.2,31.9-0.5c12-0.3,23.5-0.9,35.5-1.3c4.5,0,8.1-1,8.1-2.1
							c0-1.2-3.6-2.1-8.1-2.1c-12-0.5-23.7-1-35.8-1.3c-10.7-0.2-21.5-0.3-32.2-0.3c-7.2,0-14.3,0.1-21.4,0.1
							c-25,0.2-50.1,0.3-74.9,0.9c-5.9,0.2-11.5,0.5-17.4,0.7c-52.1,1.5-104.4,2.5-156.8,3.2c-35.6,0.4-71.2,0.3-106.8,0.4
							c-118.7,0.6-237.3,0.9-356,1.4c-29.7,0.1-59.3,0.3-89,0.5c-59.3,0.4-118.7,0.7-178,1.1c-89,0.7-178,1.6-267,2.2
							c-13.2,0.1-26.4,0.2-39.6,0.2c-19.8,0-39.6-0.1-59.4-0.2c-51,0-102,0.1-153.1,0.3c-118.7,0.5-237.6,1-356-0.7
							c-13.1-0.2-26.4-1.1-39.4-0.6c-6.9,0.3-11,1.2-17.5,1.8c-1.4,0-2.7,0.3-2.8,0.6C-45,298.2-43.9,298.5-42.5,298.6z"/>
					</g>
					<path class="st2" d="M-97.3,185.3c0.4-0.3,1.5-0.3,2.8,0c15.8,0.1,60.7,0.7,106.1,2c20.4-0.8,29.8-0.1,28.3,0.9
						c8.1,0.3,16.1,0.6,23.6,0.9c12.7,0.5,24.3,1.3,34.2,1.9c18.5,1.1,31.2,2.4,34,3.8c2,1-0.4,2.2-7.2,2.9
						c-10.4,1.1-31.8,1.5-35.8,1.8c-9.3,0.6-20.7,0.2-30.8,0.5c-2.4,0.1-4.7,0.2-6.9,0.4c-6.7,0.6-14.8,0.9-23.3,1
						c-11.9,0.2-24.5,0.1-34.7,0.1c-1.2,0-2.1-0.2-2.1-0.6c0-0.3,0.9-0.6,2.1-0.6c10.1,0,22.5,0,34.3-0.3c8-0.2,15.6-0.5,21.9-1.1
						c2.5-0.2,5.2-0.4,8-0.5c9.8-0.3,20.9,0,29.9-0.6c2.6-0.2,12.8-0.5,22.3-1c4.6-0.2,9-0.5,12.3-0.9c1-0.1,2.5-0.2,3.2-0.3
						c-2.7-1.2-13.5-2.1-28.7-2.9c-9.9-0.5-21.6-0.7-34.1-1.1c-16.2-0.4-33.9-0.8-51.5-1.1l-4.4,0.1c-2.5,0-2.4,0-4.9,0.1l-1.2,0
						c-0.4,0-0.9,0-1.5,0c-0.2,0-0.7,0-1.5,0l-1.1,0c-1.2,0-3.6,0-6.9,0c-12.2-0.1-36.1-0.2-56-0.5c-9.4-0.1-18-0.3-24-0.5
						c-5.5-0.1-9.2-0.2-9.9-0.3c-8.8-0.5-6.1-2.8-5.3-3.1c0.5-0.2,1.8-0.8,5.5-1c0.3,0,1,0,2.1,0L-97.3,185.3L-97.3,185.3
						c-0.1,0.2,1.2,0.2,3.4,0.2l-0.1,0l-0.4-0.1l-0.2,0L-97.3,185.3z M125.2,195.5c0.3-0.1,0.4-0.1,0.2-0.1
						C125.2,195.3,125.2,195.4,125.2,195.5z"/>
					<path class="st2" d="M-15.5,179.6c0.3,0,0.7-0.1,1.1-0.1c1.2,0,0.8,0.3,2.1,0.4c1.3,0.1,2.7,0.1,4.3,0.1
						c7.6,0,17.8-0.1,29.6-0.1c17.2,0.1,37.6,0.1,57,0.4c11.1,0.2,22,0.3,31.8,0.6c12.9,0.3,24,0.7,31.6,1
						c14.8,0.5,29.7,0.9,44.6,1.2c20.8,0.4,41.6,0.7,62.3,1c13.9,0.2,27.7,0.4,41.3,0.8c34.3,1.2,81.4,2.6,125.9,2.8
						c17.6,0.1,34.8,0,50.6-0.5c12-0.4,23.1-1,33.2-1.7c0.5,0,0.8-0.2,0.7-0.3c-0.1-0.1-0.6-0.2-1.2-0.2
						c-10.1,0.6-21.3,0.9-33.1,1.1c-15.8,0.3-32.8,0.4-50.1,0.3c-44.3-0.3-91-1.9-125-3.3c-14.6-0.7-29.5-1.2-44.5-1.5
						c-34.4-0.8-69.5-0.8-103.8-1.7c-8-0.2-19.7-0.5-33.3-0.9c-23.7-0.7-53-2-78-2.3C16,176.4,2.1,176.5-7.6,177
						c-2.7,0.2-5.3,0.2-7,0.6c-1.1,0.3-0.4,0.4-1.3,0.6c-0.3,0.1-0.8,0.1-1.2,0.1c-1.4,0.1-2.1,0.5-1.7,0.9S-16.9,179.8-15.5,179.6z
						"/>
					<path class="st2" d="M-9.2,209.8c0.7,0.4,7.4,1,16.6,1.1c11.4,0.1,26.6-0.5,34.3-0.9c19.7-0.9,39.9-1.3,59.8-1.7
						c5.1-0.1,10.2-0.1,15.2-0.2c6.4-0.2,12.6-0.6,18.8-1c10.9-0.6,22.8-1.5,34.5-2.2c7.8-0.5,15.5-1,22.9-1.1
						c0.7,0,1.3-0.2,1.3-0.3s-0.6-0.3-1.3-0.3c-5.8-0.1-11.9-0.1-18.1,0.2c-13.7,0.5-27.7,1.7-40.5,2.4c-6.5,0.3-13,0.4-19.5,0.6
						c-2.8,0.1-5.5,0.3-8.3,0.4c-21.9,0.7-44.3,0.5-66.2,1.4l-45.2,1c-0.7-0.3-2.3-0.4-3.6-0.2C-9.5,209-9.9,209.4-9.2,209.8z"/>
					<path class="st2" d="M415,221c0.8-0.4,12.5-0.1,25.9,0.3c15.9,0.5,34,1.2,38.7,1.5c11.2,0.7,22.3,1.3,33.4,1.7
						c11.2,0.5,22.5,0.8,33.8,1c52,1.2,104.1,1.2,158,2.2c0.3,0,0.5,0,0.5-0.1c0-0.1-0.2-0.1-0.4-0.1c-46-1.2-90.7-1.7-135.1-2.8
						c-14.9-0.4-29.8-0.9-44.8-1.4c-14.8-0.5-29.7-1-44.5-1.7c-5.5-0.2-28.7-0.8-46-1c-10.7-0.1-19.1-0.1-19.7,0.2c0,0,0,0,0,0
						C414.9,221.1,415,221,415,221z"/>
					<g transform="matrix(0.91035,0,0,0.91035,18.2011,153.629)">
						<path class="st2" d="M760.8,162.1c0.3,0.1,0.5,0.3,0.7,0.4c0.8,0.6,0.1,1.1-0.9,1.6c-1.3,0.7-4.4,1.2-8.1,1.6
							c-5,0.5-11.6,0.7-18,0.9c-7.2,0.2-14.1,0.3-17.1,0.4c-8.4,0.3-17.1-0.2-25.7-0.1c-2,0-4,0.1-6,0.2c-5.6,0.3-11.2,0.5-17,0.6
							c-5.6,0.1-11.3,0-17,0c-17.1-0.2-34.3-0.7-50.5-1.1c-5.5-0.1-13.3,0-20.7-0.1c-3.4,0-6.7-0.1-9.8-0.3
							c-4.6-0.3-8.6-0.8-11.6-1.7c-0.8-0.2-1.4-0.5-2-0.8c-3.7-1.9-1.3-3.5,5.4-4.7c11.3-2,40.6-2.6,46.9-2.6
							c26.8,0.1,53.7-0.4,80.4,0c11.6,0.2,23.2,0.6,34.7,1.2c6.3,0.3,17.9,0.2,26.5,0.9c4.7,0.4,8.6,1.1,10.6,2
							c0.4,0.2,1.3,0.9,1,1.3c0,0.1,0,0.2-0.2,0.2C761.1,162.3,762.2,162.3,760.8,162.1L760.8,162.1z M757.5,161.1
							c-1-0.3-2.4-0.5-3.9-0.6c-2.3-0.3-4.9-0.4-7.7-0.5c-8.1-0.2-17.4,0.1-22.8-0.1c-15-0.5-30-0.5-45-0.4
							c-22.8,0.1-45.7,0.3-68.6,0.3c-3.6,0-15.5,0.2-26.1,0.8c-4.3,0.2-8.5,0.5-11.6,0.9c-0.9,0.1-1.7,0.2-2.3,0.4
							c-0.2,0-0.6,0.1-0.5,0.1c1.7,1.3,6.6,2,12.2,2.4c7.2,0.5,15.2,0.5,20.6,0.7c13.5,0.4,27.6,0.8,41.8,1c8.4,0.1,16.7,0,25-0.1
							c5.6,0,11.1-0.1,16.6-0.2c7.4-0.3,15,0,22.5,0c3,0,6.1,0,9-0.2c4.6-0.3,18.6-0.5,28.4-1.5c3.3-0.3,5.6-0.8,7.1-1.3
							c0.9-0.3,2.3-0.4,1.9-0.9c-0.6-0.3-0.1-0.7,1.1-0.9C755.9,161,756.8,161,757.5,161.1z"/>
					</g>
					<g transform="matrix(0.91035,0,0,0.91035,18.2011,153.629)">
						<path class="st2" d="M25.3,121.3l-0.4-0.1c-0.3-0.3-1.6-0.3-3.1-0.3c-2.4,0-5.1,0.1-6.5,0.1l-25.6-0.3
							c-6.9,0-13.5,0.1-20.1,0.3c-16.4,0.6-32,1.6-48.7,1.9c-4.8,0-8.7-1-8.7-2.3c0-1.3,3.9-2.3,8.7-2.3c16.3,0.3,31.9-0.1,48-0.1
							c7.1,0,14.2,0.1,21.5,0.3l25.7,1.1c1.6,0.1,5.3,0.2,7.5,0.6c1.5,0.3,2.5,0.5,2.1,0.9L25.3,121.3L25.3,121.3c0.1,0,0.2,0,0.2,0
							L25.3,121.3L25.3,121.3C25.2,121.3,25.2,121.3,25.3,121.3L25.3,121.3z"/>
					</g>
					<path class="st2" d="M321,293.7l1.9,0c17.5,0,35.1-0.6,52.7-1.3c41.1-1.7,82.4-4.7,122.6-6.2c19.4-0.5,38.8-0.8,58.3-1
						c29.1-0.3,58.3-0.4,87.4-0.1c72.8,0.7,145.5,3,217.1,5.4c17.7,0.6,35.8,0.9,54,1c42.3,0.3,85.5-0.2,127-0.1
						c1.1,0,1.9,0.2,1.9,0.5c0,0.3-0.9,0.5-1.9,0.5c-35.6,0.1-72.4,0.6-109,0.6c-24.6,0-49-0.3-72.8-1.1
						c-71.5-2.3-144-4.7-216.6-5.3c-29-0.2-58-0.3-86.9,0.2c-19.2,0.3-38.4,0.9-57.5,1.6c-40.2,1.2-81.7,4-122.7,5.5
						c-18,0.7-35.9,1.1-53.7,1.1c-0.5,0-1.9,0-2.7,0c-0.9,0-1.6-0.1-2-0.2c-1-0.3-1-0.7,0-1C318.9,293.6,320,293.6,321,293.7z"/>
					<path class="st2" d="M1781.4,277.6c-1.7-0.3-17.7-0.5-37.8-0.3c-32.4,0.4-75.9,1.7-84.2,1.9c-21.4,0.8-42.6,1.9-64,2.8
						c-24.8,1.1-49.8,1.9-74.6,2.9c-24.9,1-49.7,2.1-74.6,2.9c-30.6,1-61.2,1.6-92,1.7c-0.5,0-0.9,0.1-0.9,0.2
						c0,0.1,0.4,0.2,0.9,0.2c30.8,0.1,61.6-0.5,92.4-1.3c25-0.7,50-1.4,75-2.4c24.9-0.9,49.7-2.2,74.6-3c21.4-0.7,42.9-1.1,64.3-1.4
						l118.2-3.1c1.2,0.2,2.8,0.1,3.6-0.2C1783,278.2,1782.6,277.8,1781.4,277.6z"/>
					<path class="st2" d="M-31,236.5c11-2.2,12.3-3.3,21-3.8c5.1-0.3,12.6-0.4,26.1-0.3c19.9,0.1,39,0.2,57.3,0.4
						c20,0.1,39.1,0.3,57.2,0.5c42.6,0.4,80.4,0.8,114.4,1.7c101.1,2.4,168.2,6.3,228,6.9c0.5,0,0.9-0.1,1-0.2
						c0-0.1-0.4-0.2-0.9-0.3c-52.2-0.7-110-3.6-191.1-6.4c-25-0.8-52.2-1.7-82.2-2.5c-17.4-0.4-35.7-0.9-55-1.2
						c-11.9-0.2-24.1-0.3-36.8-0.4c-11.9-0.1-24.1-0.2-36.8-0.2c-17.6,0-36,0.1-55.2,0.2c-19.7,0.2-27.5,0.5-32.5,1.4
						c-4.8,0.8-6.9,2.1-14.7,4.3c-0.1,0-0.1,0,0,0C-31.2,236.5-31.1,236.5-31,236.5z"/>
					<path class="st2" d="M-5,255.7c-0.4-0.1-0.9-0.2-1.4-0.3c-7.2-1.4-19.1-3.7-19.9-4.8c-0.5-0.7,1.7-1.6,10.1-1.5
						c26.6,0.3,64.5,1.5,106,3.1c52.1,2,109.8,4.5,157.9,6c25.4,0.8,48.2,1.3,65.9,1.3c70,0,140.1-0.3,210.2-0.8
						c49-0.3,98.1-0.8,147.1-1.2c114.5-1,229-2,343.4-2.4c0.5,0,1,0.1,1,0.3c0,0.1-0.4,0.3-1,0.3c-114.4,0.8-228.8,2.3-343.2,3.5
						c-49,0.5-98.1,1-147.2,1.4c-70.1,0.5-140.3,0.9-210.4,0.9c-17.9,0-40.9-0.5-66.7-1.3c-48.2-1.5-106-3.9-158.1-6
						c-41.2-1.7-78.8-3.1-105.3-3.6c-1.9,0-3.3,0-4.4,0c-0.3,0-0.6,0-0.8,0.1c0.1,0,0.3,0.1,0.5,0.2c0.7,0.3,1.7,0.6,3,0.9
						c6.5,1.6,17.9,3.6,19.4,4.3c0.6,0.3,0.5,0.5,0.2,0.7c-0.3,0.2-0.9,0.3-2.2,0.4c-0.7,0-2,0-3.9-0.1l-25.5-1.5
						c-2.3-0.1-7-0.7-9.4-0.9c-1.1-0.1-1.7-0.1-1,0.1c0,0,0,0,0,0c-0.1,0-0.1,0-0.2,0c-1.1-0.3-0.4-0.4,1.3-0.3
						c2.5,0.1,7.3,0.6,9.6,0.7L-5,255.7z M-1.7,255.9c0.3,0,0.6,0,0.5,0C-1.2,255.8-1.4,255.8-1.7,255.9z"/>
					<path class="st2" d="M1791,229.6c0.8-0.1,1.6-0.3,2.4-0.4c1.6-0.2,3.2-0.3,4.6-0.4c1.4-0.1,2.5,0,3.7,0.2
						c1,0.2,0.9,0.4,0.8,0.6c-0.1,0.3-1.5,0.5-2,0.5c-5.1,0.4-10.3,0.7-15.6,0.9l-0.5,0.1c0,0-0.1,0-0.2,0c0,0,0,0,0,0l0.2-0.1
						c-3.1,0.1-6.3,0.3-9.4,0.4c-12.8,0.4-25.9,0.5-38.5,0.7c-18.2,0.1-35.9,0.4-53.5,0.8c-26.6,0.5-53.1,1-80.4,1.6
						c-39.8,0.7-79.8,1.1-119.9,1.1c-46.5,0-93.1-0.5-139.7-0.9c-46.6-0.4-93.2-0.7-139.6-0.9c-0.5,0-0.8-0.1-0.8-0.2
						c0-0.1,0.4-0.2,0.8-0.2c39.8-0.1,79.7,0,119.7,0c39.9,0,79.8-0.1,119.6-0.3c26.6-0.1,53.1-0.4,79.6-0.7
						c26.5-0.3,53-0.6,79.4-1.2c22.8-0.5,45-1,67.3-1.3c22.3-0.3,44.7-0.4,67.7-0.2c12.4,0.2,25.3,0.4,38.1,0.3
						C1780,229.8,1785.6,229.7,1791,229.6z M1799.5,229.2c-1-0.2-2.5-0.2-4.1-0.1c-1.2,0.1-2.5,0.3-3.7,0.4
						C1794.3,229.4,1796.9,229.3,1799.5,229.2z M1799.6,229.2l0.5,0.1C1799.9,229.3,1799.7,229.2,1799.6,229.2z"/>
					<path class="st2" d="M1792.9,246.8c0.6-0.1,0.3-0.2-0.6-0.2c-1.4-0.1-4.2-0.1-4.8-0.1c-2,0.1-4,0.3-6.2,0.3
						c-2.1,0.1-4.1,0.1-6.2,0.1c-7.6,0.1-15.4,0.2-23.2,0.5c-5.3,0.2-10.4,0.4-15.5,0.6c-4.1,0.2-8.2,0.3-12.4,0.4
						c-10.5,0.2-21.1,0.1-31.4,0.4c-10.5,0.5-21,1-31.6,1.3c-10.6,0.3-21.3,0.6-32,0.9c-0.3,0-0.5,0.1-0.5,0.1
						c0,0.1,0.3,0.1,0.5,0.1l64.5-0.1c10.2-0.2,20.7,0.1,31-0.1c4.8-0.1,9.5-0.2,14.1-0.5l37.1-2.4c1.3-0.1,2.5-0.2,3.8-0.4
						c2.9-0.3,5.7-0.7,8.2-1.1l4.9,0c-0.1,0-0.1,0,0,0C1792.7,246.8,1792.8,246.8,1792.9,246.8z"/>
				</g>
			</g>
		</g>
	</g>
</g>
</svg>
