<?xml version="1.0" encoding="UTF-8" standalone="no"?>
<!DOCTYPE svg PUBLIC "-//W3C//DTD SVG 1.1//EN" "http://www.w3.org/Graphics/SVG/1.1/DTD/svg11.dtd">
<svg width="100%" height="100%" viewBox="0 0 2732 2048" version="1.1" xmlns="http://www.w3.org/2000/svg" xmlns:xlink="http://www.w3.org/1999/xlink" xml:space="preserve" xmlns:serif="http://www.serif.com/" style="fill-rule:evenodd;clip-rule:evenodd;stroke-linejoin:round;stroke-miterlimit:2;">
    <g transform="matrix(1.09848,0,0,1.09848,-19.9935,-168.758)">
        <g id="WOOD">
            <path d="M2331.28,403.447L2332.23,403.406L2343.51,1691.23C2252.53,1694.15 2142.57,1701.17 2013.11,1701.09C1892.67,1701.01 1750.75,1685.65 1563.95,1683.16C1315.7,1679.85 1091.08,1695.33 877.546,1699.44C833.573,1700.28 635.962,1684.54 594.607,1683.71C414.739,1680.11 279.069,1673.98 211.738,1683.57C206.834,1684.27 209.071,549.721 209.264,455.77L208.265,455.773L208.098,407.796C202.48,403.015 532.336,435.042 612.926,425.962C805.146,404.306 1247.82,415.317 1308.97,417.661C1322.09,418.164 1434.15,417.911 1536.72,413.224C1639.29,408.536 1827.58,391.68 2067.72,399.974C2144.43,402.623 2331.02,376.755 2331.02,376.755L2331.28,403.447Z" style="fill:rgb(212,173,64);"/>
            <clipPath id="_clip1">
                <path d="M2331.28,403.447L2332.23,403.406L2343.51,1691.23C2252.53,1694.15 2142.57,1701.17 2013.11,1701.09C1892.67,1701.01 1750.75,1685.65 1563.95,1683.16C1315.7,1679.85 1091.08,1695.33 877.546,1699.44C833.573,1700.28 635.962,1684.54 594.607,1683.71C414.739,1680.11 279.069,1673.98 211.738,1683.57C206.834,1684.27 209.071,549.721 209.264,455.77L208.265,455.773L208.098,407.796C202.48,403.015 532.336,435.042 612.926,425.962C805.146,404.306 1247.82,415.317 1308.97,417.661C1322.09,418.164 1434.15,417.911 1536.72,413.224C1639.29,408.536 1827.58,391.68 2067.72,399.974C2144.43,402.623 2331.02,376.755 2331.02,376.755L2331.28,403.447Z"/>
            </clipPath>
            <g clip-path="url(#_clip1)">
                <g>
                    <path d="M187.965,448.533C187.965,448.533 475.734,468.575 556.286,462.367C636.838,456.159 766.831,456.061 972.176,444.049C1198.19,430.828 1484.36,452.173 1594.69,442.631C1705.03,433.089 1931.81,417.493 2103.84,433.817C2275.86,450.142 2367.94,402.969 2367.94,402.969L2362.93,275.856L187.147,304.674L187.965,448.533Z" style="fill:rgb(196,154,36);"/>
                    <path d="M189.55,1639.87C189.55,1639.87 575.697,1651.02 682.298,1658.76C788.898,1666.5 1057.55,1668.73 1335.26,1650.45C1612.96,1632.17 1848.37,1667.96 1926.26,1664.78C2004.15,1661.6 2142.78,1668.04 2348.15,1641.52C2553.53,1615 2390.53,1738.66 2390.53,1738.66L2322.13,1926.13L224.976,1827.99L189.55,1639.87Z" style="fill:rgb(196,154,36);"/>
                </g>
                <g id="Calque5">
                </g>
                <g id="Calque4">
                    <g transform="matrix(1,0,0,1,-3.92781,-0.192282)">
                        <path d="M142.001,673.526C151.823,676.903 160.669,680.882 170.799,683.034C180.475,685.089 190.448,685.172 200.287,685.974C278.734,692.367 357.185,691.722 436.125,693.486C512.789,694.236 589.308,693.728 665.76,692.138C687.181,691.693 708.6,691.363 730.002,690.506C779.98,688.506 829.741,683.963 879.719,682.099C986.553,678.114 1093.52,678.386 1200.65,677.76C1338.37,677.338 1476.27,677.103 1614.1,676.017C1673.11,675.553 1732.09,674.136 1791.06,674.158C1894.07,673.952 1996.82,673.271 2099.53,675.071C2140.69,675.792 2181.8,677.452 2222.96,678.689C2284.72,680.546 2346.43,682.581 2408.33,683.372C2419.78,683.519 2431.24,684.259 2442.69,683.694C2449.61,683.353 2456.51,683.019 2463.27,681.486C2468.21,680.365 2472.12,678.383 2476.9,676.695C2482.07,676.568 2486.17,672.264 2486.05,667.088C2485.92,661.912 2481.62,657.813 2476.44,657.939C2471.6,656.491 2467.62,654.684 2462.66,653.785C2455.87,652.559 2449,652.502 2442.11,652.416C2339.19,651.135 2236.72,660.029 2134.04,659.771C2099.77,659.685 2065.51,658.884 2031.25,657.999C1951.34,655.937 1871.44,652.583 1791.33,650.448C1732.2,649.113 1673.04,647.827 1613.86,648.37C1475.96,649.637 1338.11,656.541 1200.38,660.384C1098.33,663.046 996.575,668.994 894.719,670.668C833.55,671.674 772.459,669.458 711.274,669.461C619.774,669.466 528.231,670.665 436.493,668.771C348.125,668.286 260.678,660.478 172.461,663.368C162.206,663.704 152.887,666.069 142.668,667.285C140.946,667.101 139.398,668.35 139.214,670.072C139.03,671.794 140.279,673.342 142.001,673.526Z" style="fill:rgb(196,154,36);"/>
                    </g>
                    <path d="M1525.95,430.261C1527.86,432.248 1523.18,429.344 1518.93,428.519C1517.27,428.195 1515.69,428.268 1514.64,428.484L1486.06,431.585C1468.22,435.599 1448.39,435.848 1429.58,438.363C1421.09,439.499 1412.82,441.139 1405,443.621C1382.49,451.332 1358.99,455.867 1335.09,459.295C1279.33,467.291 1221.28,468.552 1167.68,483.023C1167.47,483.075 1167.34,483.287 1167.39,483.495C1167.45,483.704 1167.66,483.831 1167.87,483.779C1221.96,471.325 1280.06,472.831 1336,466.341C1360.49,463.501 1384.52,458.988 1407.63,451.495C1414.95,448.938 1422.74,447.257 1430.73,445.88C1449.57,442.63 1469.48,441.23 1487.25,436.339L1515.52,432.025C1516.64,431.679 1518.57,431.893 1520.47,431.884C1523.03,431.872 1525.4,431.636 1526.27,431.331C1527.03,431.062 1527.4,430.603 1526.13,430.016C1526.07,429.966 1525.97,429.981 1525.92,430.049C1525.87,430.116 1525.89,430.212 1525.95,430.261Z" style="fill:rgb(196,154,36);"/>
                    <path d="M2384.66,1930.56L2388.77,1930.2C2388.83,1930.2 2388.87,1930.16 2388.87,1930.1C2388.87,1930.04 2388.83,1929.99 2388.77,1929.99C2387.78,1929.91 2386.74,1929.56 2385.76,1929.72C2385.3,1929.8 2384.9,1930.02 2384.52,1930.29C2384.45,1930.33 2384.42,1930.42 2384.45,1930.49C2384.49,1930.57 2384.58,1930.6 2384.66,1930.56Z" style="fill:rgb(196,154,36);"/>
                    <path d="M2136.61,853.919C2136.59,853.856 2136.53,853.811 2136.47,853.811C2136.73,853.818 2136.71,853.85 2136.61,853.919L2136.62,853.963C2136.62,854.047 2136.55,854.115 2136.47,854.115L2138.03,854.282C2138.15,854.282 2138.24,854.375 2138.24,854.489C2138.24,854.604 2138.15,854.697 2138.03,854.697C2137.59,854.684 2136.14,854.395 2136.3,854.169C2136.38,854.057 2136.52,853.976 2136.61,853.919Z" style="fill:rgb(196,154,36);"/>
                    <path d="M793.073,685.692L793.125,686.117C793.135,686.201 793.211,686.26 793.295,686.25C793.378,686.24 793.437,686.164 793.427,686.08L793.375,685.655C793.365,685.572 793.289,685.513 793.206,685.523C793.122,685.533 793.063,685.609 793.073,685.692Z" style="fill:rgb(196,154,36);"/>
                    <path d="M833.271,603.577L891.085,589.017C905.582,584.8 920.954,581.929 936.567,579.699C959.838,576.376 983.656,574.531 1005.98,572.382C1064.76,566.775 1124.97,563.536 1185.13,563.912C1245.26,564.288 1305.31,568.278 1363.82,576.175C1452.89,588.734 1542.73,599.502 1633.05,606.397C1671.66,609.345 1710.35,611.537 1749.07,612.966C1787.8,614.395 1826.56,614.987 1865.3,614.842C1955.86,614.503 2046.29,609.929 2136.12,601.059C2171.6,597.489 2207.38,592.249 2243.1,585.884C2296.29,576.409 2349.35,564.699 2401.66,554.971C2402.96,554.754 2403.84,553.523 2403.62,552.222C2403.4,550.922 2402.17,550.042 2400.87,550.258C2339.55,559.383 2277.01,570.591 2214.8,579.12C2188.08,582.783 2161.44,586.064 2134.95,588.216C2045.45,595.65 1955.43,598.296 1865.32,597.739C1826.78,597.501 1788.23,596.636 1749.68,595.374C1711.13,594.111 1672.6,592.378 1634.1,590.291C1543.89,585.4 1453.95,578.331 1364.76,568.605C1305.86,561.828 1245.5,559.315 1185.13,559.805C1124.86,560.294 1064.57,563.772 1005.74,569.927C983.395,572.245 959.542,574.162 936.28,577.772C920.622,580.201 905.241,583.418 890.749,587.898C871.523,593.82 848.876,598.816 838.627,601.531C834.818,602.541 832.747,603.435 833.039,603.774C833.093,603.838 833.189,603.846 833.253,603.791C833.318,603.737 833.325,603.641 833.271,603.577Z" style="fill:rgb(196,154,36);"/>
                    <path d="M2010.47,491.564C2013.04,492.032 2014.99,494.288 2014.99,496.996C2015.73,501.038 2015.12,504.982 2012.94,508.569C2012.14,509.885 2010.94,510.953 2009.68,512.033C2007.79,513.648 2005.58,515.085 2003.14,516.617C1996.58,520.738 1988.1,525.57 1977.32,528.197C1972.83,529.293 1967.96,529.761 1962.91,530.345C1949.99,531.842 1935.71,532.175 1921.32,532.467C1885.99,533.181 1850.23,531.169 1834.29,526.04C1828.3,524.114 1824.72,521.394 1823.42,518.949C1814.93,504.976 1831,491.485 1858.35,482.53C1861.19,481.597 1864.1,480.617 1867.18,479.854C1878.32,477.094 1890.78,475.599 1903.04,474.388C1933.36,471.391 1962.82,472.16 1972.44,474.529C1979.39,476.273 1990.61,476.093 1998.21,479.654C2004.33,482.519 2008.85,486.387 2010.47,491.564ZM1999.64,503.433C1998.03,501.724 1996.72,500.143 1995.94,499.434C1995.69,499.134 1995.18,499.813 1994.82,499.63C1993.84,499.129 1992.58,499.587 1991.31,499.271C1983.76,497.39 1973.83,496.35 1967.38,494.745C1957.6,492.247 1925.03,492.479 1894.1,495.623C1886.47,496.399 1878.95,497.485 1871.83,498.448C1868.58,498.888 1865.42,499.181 1862.36,499.601C1851.96,501.032 1842.98,502.437 1837.1,505.729C1832.99,508.032 1830.44,510.78 1832.13,514.595C1832.67,515.733 1834.69,516.347 1837.42,517.291C1853,522.689 1888.47,526.231 1922.86,523.641C1941.15,522.264 1958.72,517.813 1973.41,514.115C1975.26,513.652 1977.09,513.371 1978.84,512.947C1986.28,511.147 1992.85,509.295 1997.26,506.021C1998.27,505.268 1999.01,504.362 1999.64,503.433Z" style="fill:rgb(196,154,36);"/>
                    <g transform="matrix(1,0,0,1,5.42671,-24.7659)">
                        <path d="M144.392,953.073C151.703,957.385 156.064,962.106 164.175,964.597C223.334,982.766 287.723,971.345 349.593,971.983C461.482,973.137 573.517,969.653 685.413,965.857C733.309,964.231 781.156,962.265 828.989,960.963C852.891,960.028 876.756,958.609 900.674,958.135C1029.74,955.574 1158.86,958.53 1287.99,957.372C1374.06,956.6 1460.12,955.413 1546.16,953.406C1705.54,949.688 1864.82,943.458 2024.07,937.67C2067.16,935.485 2110.08,931.632 2153.13,930.147C2216.45,927.964 2279.72,926.837 2343.01,929.105C2350.12,929.359 2357.04,930.468 2364.14,930.671C2394.19,931.529 2424.25,929.895 2454.33,929.612C2462.9,929.531 2471.49,929.607 2480.07,929.311C2492.95,928.866 2505.81,928.438 2518.64,927.153C2533.15,925.701 2547.08,922.962 2561.53,920.96C2566.95,920.972 2571.36,916.584 2571.37,911.167C2571.38,905.75 2566.99,901.343 2561.58,901.331C2547.04,899.253 2533,896.63 2518.38,895.412C2505.44,894.333 2492.46,894.244 2479.48,894.228C2470.84,894.217 2462.21,894.623 2453.58,894.914C2423.37,895.93 2393.11,896.074 2363.05,899.025C2355.95,899.722 2349.1,901.322 2342.02,902.1C2279.03,909.022 2215.9,913.683 2152.58,916.685C2109.62,918.721 2066.6,918.1 2023.53,918.321C1880.18,920.98 1736.78,922.394 1593.37,924.975C1557.53,925.62 1521.69,926.571 1485.85,927.424C1414.17,929.129 1342.48,930.621 1270.81,932.619C1163.26,935.618 1055.8,939.865 948.268,942.646C932.337,943.058 916.409,943.627 900.474,943.705C876.556,943.821 852.666,943.112 828.752,942.803C767.16,942.851 705.501,943.423 643.81,944.389C500.341,946.638 356.808,948.849 213.669,941.144C197.8,940.289 181.767,935.927 166.065,938.415C157.728,939.736 152.759,943.744 144.895,946.817C143.168,946.678 141.654,947.967 141.515,949.694C141.376,951.42 142.665,952.935 144.392,953.073Z" style="fill:rgb(196,154,36);"/>
                    </g>
                    <g transform="matrix(1,0,0,1,-1.99448,-75.2592)">
                        <path d="M141.793,1252.11C154.927,1257.05 166.066,1262.94 179.807,1265.75C192.511,1268.36 205.671,1267.58 218.632,1268.05C290.747,1270.69 363.111,1268.32 435.281,1265.45C466.079,1264.23 496.8,1262.37 527.53,1261.26C561.137,1260.03 594.72,1259.28 628.334,1259.37C707.107,1259.56 785.842,1262.68 864.596,1261.5C931.595,1260.5 998.474,1255.06 1065.45,1253.15C1094.06,1252.34 1122.66,1252.65 1151.27,1253.24C1250,1255.3 1348.57,1261.39 1447.29,1265.21C1489.73,1266.85 1532.17,1267.91 1574.64,1268.38C1621.83,1268.19 1669.03,1267.7 1716.23,1266.79C1826.13,1264.68 1936.01,1261.1 2045.92,1260.33C2086.66,1260.02 2127.34,1260.41 2168,1260.17C2208.81,1259.93 2249.55,1258.24 2290.34,1257.88C2325.35,1257.57 2360.35,1258.28 2395.41,1257.46C2398.14,1257.39 2400.87,1257.47 2403.59,1257.24C2409.98,1256.71 2416.34,1256.08 2422.57,1254.51C2426.69,1253.46 2430.04,1251.8 2434.03,1250.33C2437.05,1250.16 2439.37,1247.56 2439.2,1244.53C2439.02,1241.51 2436.43,1239.19 2433.4,1239.37C2429.29,1238.37 2425.81,1237.07 2421.62,1236.46C2415.32,1235.55 2409,1235.52 2402.64,1235.54C2399.93,1235.55 2397.24,1235.86 2394.54,1236.02C2359.75,1238.02 2325.01,1240.07 2290.22,1240.25C2249.53,1240.45 2208.91,1238.17 2168.21,1237.18C2127.49,1236.2 2086.74,1235.69 2045.94,1235.33C1998.75,1234.9 1951.55,1234.85 1904.35,1235.17C1794.42,1235.9 1684.49,1238.09 1574.58,1237.77C1461.75,1239.77 1348.95,1236.14 1236.14,1236.25C1207.85,1236.27 1179.58,1236.7 1151.3,1237.32C1117.73,1237.9 1084.24,1239.93 1050.69,1241.3C1017.25,1242.67 983.786,1243.43 950.328,1244.25C921.719,1244.95 893.115,1245.32 864.504,1245.1C830.854,1245 797.222,1244.2 763.589,1243.18C724.264,1241.98 684.935,1240.8 645.615,1239.3C606.147,1237.79 566.724,1236 527.212,1235.54C492.484,1235.23 457.71,1235.08 422.897,1235.64C350.344,1236.83 277.757,1238.22 205.287,1237.04C197.254,1236.91 189.185,1236.03 181.201,1236.93C167.414,1238.48 155.836,1242.96 142.261,1245.85C140.534,1245.72 139.027,1247.02 138.897,1248.75C138.768,1250.48 140.065,1251.98 141.793,1252.11Z" style="fill:rgb(196,154,36);"/>
                    </g>
                    <g transform="matrix(1,0,0,1,-7.07185,-86.5481)">
                        <path d="M133.573,1522.7C137.1,1528.15 134.567,1527.09 139.302,1531.53C139.73,1531.93 140.07,1532.13 140.636,1532.28C144.492,1533.31 148.617,1532.36 152.608,1532.38C209.622,1532.76 266.591,1532.53 323.53,1530.87C353.03,1530.02 382.516,1528.76 411.984,1527.22C529.696,1521.09 647.158,1512.18 765.007,1508.13C794.644,1507.3 824.267,1506.49 853.9,1506.22C898.379,1505.82 942.851,1506.3 987.316,1506.79C1042.93,1507.4 1098.54,1507.96 1154.14,1509.35C1209.79,1510.75 1265.38,1513.04 1321.04,1514.45C1341.21,1514.94 1361.36,1515.56 1381.54,1515.8C1428.56,1516.36 1475.62,1515.44 1522.68,1515.75C1589.89,1516.18 1657.07,1518.54 1724.31,1518.39C1778.06,1518.28 1831.8,1517 1885.53,1515.87C1966.16,1514.16 2046.73,1511.66 2127.25,1509.85C2164.34,1509.05 2201.32,1505.98 2238.4,1504.35C2260.58,1503.38 2282.75,1503.68 2304.94,1502.87C2338.05,1501.65 2371.12,1499.89 2404.21,1498.87C2409.02,1498.72 2413.84,1498.72 2418.64,1498.36C2429.93,1497.53 2441.06,1496.34 2452.27,1494.72C2459.31,1493.7 2465.9,1492.11 2472.91,1490.86C2476.58,1490.89 2479.58,1487.93 2479.61,1484.26C2479.63,1480.58 2476.67,1477.58 2473,1477.56C2465.93,1476.2 2459.24,1474.65 2452.1,1473.73C2440.72,1472.26 2429.37,1471.53 2417.89,1471.32C2413.01,1471.23 2408.14,1471.54 2403.26,1471.73C2369.95,1473.03 2336.66,1475.12 2303.41,1477.98C2281.33,1479.88 2259.39,1482.97 2237.28,1484.5C2200.59,1487.03 2163.81,1487.27 2127.05,1487.12C2094.8,1486.77 2062.56,1486.32 2030.28,1486.2C1955.08,1485.94 1879.83,1486.4 1804.56,1486.74C1785.22,1486.82 1765.87,1486.73 1746.53,1487.09C1669.15,1488.55 1591.88,1492.71 1514.53,1493.8C1469.4,1494.44 1424.28,1493.54 1379.18,1493.8C1359.84,1493.91 1340.52,1494.35 1321.18,1494.57C1265.55,1495.21 1209.96,1495.95 1154.35,1495.63C1063.46,1495.12 972.608,1493.37 881.711,1492.77C842.739,1492.51 803.769,1492.06 764.774,1492.21C638.27,1491.59 511.916,1493.58 385.533,1497.94C309.937,1500.55 234.41,1504.77 158.713,1506.39C152.835,1506.52 146.945,1506.37 141.078,1506.78C140.569,1506.81 139.999,1506.68 139.567,1506.95C133.707,1510.64 137.272,1510.59 133.552,1516.42C131.82,1516.43 130.418,1517.84 130.424,1519.57C130.43,1521.3 131.841,1522.71 133.573,1522.7Z" style="fill:rgb(196,154,36);"/>
                    </g>
                    <path d="M77.067,522.307C77.536,520.701 78.922,521.009 80.446,522.4C99.544,523.021 153.759,525.695 208.658,531.369C233.335,527.894 244.647,530.97 242.891,535.314C252.7,536.583 262.283,537.959 271.44,539.446C286.788,541.939 300.77,545.313 312.816,548.064C335.189,553.173 350.537,559.004 353.898,565.576C356.311,570.303 353.434,575.685 345.22,578.899C332.672,583.809 306.844,585.783 301.985,586.935C290.728,589.611 277.003,587.777 264.819,589.124C261.927,589.444 259.129,589.95 256.493,590.795C248.412,593.377 238.591,594.729 228.334,595.374C213.96,596.278 198.729,595.83 186.439,595.681C185.028,595.681 183.882,594.535 183.882,593.124C183.882,591.712 185.028,590.566 186.439,590.566C198.599,590.419 213.678,590.512 227.875,589.268C237.535,588.421 246.775,586.953 254.337,584.327C257.378,583.275 260.614,582.598 263.966,582.148C275.786,580.565 289.185,582.144 300.072,579.287C303.248,578.452 315.512,577.006 327.044,574.664C332.606,573.534 337.972,572.15 341.945,570.577C343.196,570.081 344.976,569.534 345.808,569.037C342.603,563.691 329.544,559.424 311.17,555.897C299.247,553.608 285.134,552.528 269.93,551.032C250.388,549.109 228.963,547.509 207.669,546.209L202.326,546.674C199.283,546.88 199.381,546.873 196.384,547.038L194.894,547.102C194.376,547.241 193.782,547.308 193.101,547.287C192.84,547.279 192.271,547.469 191.318,547.231L190.042,547.271C188.565,547.308 185.657,547.241 181.671,547.137C166.929,546.749 138.095,545.992 113.981,544.712C102.574,544.106 92.246,543.178 84.949,542.575C78.271,542.023 73.886,541.515 72.997,541.317C62.396,538.957 65.667,528.524 66.652,526.933C67.256,525.959 68.814,523.146 73.31,522.432C73.655,522.377 74.49,522.261 75.862,522.275L77.067,522.307L76.98,522.587C76.89,523.03 78.566,523.043 81.133,523.088L80.955,522.889L80.446,522.4L80.145,522.39L77.067,522.307ZM345.91,568.968C346.293,568.738 346.415,568.512 346.103,568.314C345.856,568.158 345.829,568.562 345.91,568.968Z" style="fill:rgb(196,154,36);"/>
                    <path d="M175.876,496.117C176.289,495.994 176.713,495.698 177.17,495.769C178.629,495.996 178.159,497.146 179.702,497.618C181.255,498.094 182.969,497.949 184.886,497.908C194.054,497.711 206.438,497.361 220.682,497.596C241.509,497.94 266.049,498.104 289.548,499.434C302.994,500.195 316.087,500.919 327.917,502.037C343.539,503.514 356.933,505.455 366.149,506.555C383.987,508.857 401.981,510.675 420.045,511.979C445.168,513.792 470.362,515.121 495.306,516.711C512.076,517.78 528.734,518.707 545.178,520.589C586.649,526.167 643.472,532.615 697.328,533.3C718.553,533.57 739.348,533.246 758.508,531.028C772.987,529.352 786.472,526.545 798.604,523.046C799.224,522.891 799.602,522.262 799.447,521.642C799.292,521.022 798.663,520.645 798.043,520.8C785.855,523.387 772.361,524.779 758.018,525.824C738.98,527.211 718.448,527.838 697.45,527.257C643.913,525.777 587.527,518.353 546.386,512.131C528.696,509.126 510.754,506.624 492.584,505.1C451.037,501.615 408.651,501.511 367.185,497.239C357.564,496.235 343.335,495.05 326.918,493.095C298.227,489.676 262.943,483.725 232.681,482.321C213.991,481.454 197.135,481.511 185.381,484.036C182.129,484.734 178.941,485.039 176.976,486.815C175.694,487.974 176.546,488.629 175.349,489.671C174.954,490.015 174.37,489.988 173.909,490.156C172.264,490.698 171.369,492.474 171.912,494.119C172.455,495.764 174.231,496.659 175.876,496.117Z" style="fill:rgb(196,154,36);"/>
                    <path d="M183.521,634.413C184.326,636.125 192.489,639.018 203.599,639.275C217.393,639.595 235.713,636.991 245.018,635.315C268.863,631.006 293.176,629.165 317.313,627.479C323.458,627.05 329.614,627.121 335.706,626.398C343.389,625.486 350.916,623.754 358.415,621.952C371.6,619.215 386.012,615.189 400.135,611.784C409.606,609.501 418.889,607.354 427.855,606.898C428.704,606.898 429.392,606.209 429.392,605.361C429.392,604.513 428.704,603.825 427.855,603.825C420.832,603.354 413.488,603.516 406.018,604.56C389.457,606.874 372.526,612.495 357.119,615.471C349.325,616.733 341.439,617.169 333.586,618.219C330.206,618.671 326.917,619.578 323.525,619.998C297.065,623.273 269.99,622.502 243.563,626.584L188.896,631.171C188.001,629.688 186.071,629.21 184.588,630.104C183.104,630.999 182.627,632.93 183.521,634.413Z" style="fill:rgb(196,154,36);"/>
                    <path d="M696.048,686.09C697.005,684.483 711.166,685.659 727.288,687.545C746.46,689.789 768.348,693.161 774.081,694.5C787.559,697.504 800.976,700.259 814.454,702.318C828.041,704.393 841.661,705.823 855.273,707.066C918.07,712.8 980.995,712.739 1046.21,717.208C1046.52,717.234 1046.79,717.004 1046.82,716.694C1046.84,716.385 1046.61,716.113 1046.3,716.088C990.689,710.643 936.682,708.314 883.036,703.247C864.981,701.542 847.01,699.259 828.958,696.98C811.085,694.722 793.135,692.488 775.138,689.218C768.45,688.095 740.42,685.597 719.555,684.798C706.648,684.303 696.5,684.531 695.782,685.943C695.741,686.016 695.768,686.109 695.841,686.15C695.915,686.19 696.007,686.164 696.048,686.09Z" style="fill:rgb(196,154,36);"/>
                    <path d="M169.387,1283.56C173.918,1285.23 178.619,1286.58 183.626,1287.34C190.677,1288.41 198.116,1288.43 205.733,1288.08C233.854,1286.76 264.474,1278.63 289.649,1277.82C305.041,1277.29 320.467,1276.75 335.923,1275.93C397.203,1272.71 458.879,1267.97 520.395,1266.52C553.316,1265.75 586.186,1265.7 618.921,1267.36C640.288,1268.42 661.677,1269.05 683.077,1269.32C732.762,1269.93 782.491,1269.01 832.139,1270.78C913.922,1273.4 995.766,1277.95 1077.64,1282.5C1132.22,1285.53 1186.8,1288.6 1241.41,1290.6C1299.95,1292.76 1358.52,1293.88 1417.11,1292.73C1452.31,1291.89 1487.5,1289.67 1522.66,1286.69C1575.33,1282.23 1627.91,1276.05 1680.27,1269.97C1680.46,1269.95 1680.59,1269.78 1680.57,1269.59C1680.55,1269.41 1680.38,1269.27 1680.19,1269.29C1627.79,1274.85 1575.18,1280.57 1522.48,1284.44C1487.36,1287.02 1452.2,1288.76 1417.05,1289.15C1339.02,1290.36 1261.04,1287.97 1183.14,1283.44C1066.17,1276.64 949.412,1265.46 832.641,1259.22C811.296,1258.04 789.932,1257.24 768.551,1256.78C718.894,1255.72 669.19,1256.01 619.621,1253.37C575.543,1251.21 531.217,1251.73 486.885,1253.95C434.014,1256.59 381.126,1261.19 328.608,1265.51C315.422,1266.6 302.284,1267.82 289.151,1268.85C263.9,1270.85 233.47,1279.93 205.337,1283.1C197.977,1283.92 190.806,1284.26 183.88,1284.18C178.914,1284.13 174.141,1284.01 169.463,1283.27C169.382,1283.25 169.299,1283.29 169.278,1283.38C169.257,1283.46 169.305,1283.54 169.387,1283.56Z" style="fill:rgb(196,154,36);"/>
                    <g transform="matrix(1,0,0,1,-72.1074,-30.5887)">
                        <path d="M759.662,1442.39L759.841,1442.48C760.787,1442.98 761.003,1443.43 760.61,1444.33C760.095,1445.79 759.431,1446.93 757.867,1448.18C756.847,1449 755.409,1449.35 753.9,1449.87C749.796,1451.25 744.389,1452.22 738.002,1452.56C733.235,1452.81 727.959,1452.57 722.372,1452.23C713.879,1451.72 704.662,1450.82 695.476,1449.46C669.569,1445.62 643.844,1439.26 634.221,1437.53C596.377,1431.02 558.884,1422.63 521.736,1414.28C512.401,1412.19 503.17,1409.84 493.864,1407.82C482.173,1405.28 470.49,1403.01 458.753,1401.08C449.37,1399.64 439.897,1398.92 430.367,1398.76C408.066,1398.39 385.563,1400.64 363.529,1400.35C363.491,1400.35 363.461,1400.32 363.461,1400.28C363.461,1400.24 363.491,1400.21 363.529,1400.21C385.582,1399.93 408.043,1397.42 430.36,1396.88C440.007,1396.64 449.619,1396.7 459.184,1397.63C477.059,1399.12 494.93,1401.13 512.775,1404.13C553.697,1411 594.424,1421.32 635.825,1427.9C645.464,1429.38 671.409,1434.11 697.204,1438.21C706.154,1439.64 715.055,1441.13 723.294,1442.16C729.766,1442.96 735.793,1443.47 741.073,1443.8C745.564,1444.09 749.424,1444.38 752.611,1444.04C753.849,1443.91 754.922,1443.62 755.937,1443.51C757.489,1443.34 758.481,1443.74 759.62,1443.34C760.034,1443.38 760.122,1443.65 760.25,1443.38C760.402,1443.06 760.125,1442.72 759.662,1442.39C758.472,1441.79 756.56,1441.14 756.678,1441.07C756.723,1441.04 756.748,1440.99 756.748,1440.94C756.582,1440.87 756.493,1440.82 756.52,1440.81C756.592,1440.76 756.685,1440.79 756.729,1440.86C756.746,1440.88 756.753,1440.91 756.748,1440.94C757.319,1441.2 758.809,1441.77 759.662,1442.39Z" style="fill:rgb(196,154,36);"/>
                    </g>
                    <g transform="matrix(1,0,0,1,-96.7855,-25.8594)">
                        <path d="M759.159,1354.52L758.768,1353.03C758.761,1352.96 758.997,1352.59 759.704,1352.49C760.49,1352.39 762.107,1352.2 764.499,1352.07C767.534,1351.9 771.718,1351.71 776.847,1351.73C787.521,1351.77 802.066,1352.56 817.822,1353.13C844.372,1354.69 870.916,1356.79 897.413,1359.45C921.212,1361.84 944.979,1364.54 968.714,1367.19C984.55,1368.96 1000.35,1370.86 1016.17,1372.43C1058.66,1376.51 1101.01,1383.24 1143.47,1389.72C1171.64,1394.02 1199.85,1398.24 1228.1,1401.88C1258.4,1405.79 1288.75,1408.84 1319.12,1410.8L1670.51,1432.62C1703.69,1434.63 1737.05,1433.08 1770.4,1432.83C1792.93,1432.66 1815.36,1433.37 1837.76,1434.42C1840.39,1434.42 1842.53,1436.56 1842.53,1439.2C1842.53,1441.84 1840.39,1443.98 1837.76,1443.98C1818.28,1444.91 1798.86,1446.77 1779.31,1448.05C1770.93,1448.6 1762.53,1448.94 1754.14,1449.29C1725.92,1450.45 1697.69,1450.9 1669.57,1449.49C1634.32,1447.49 1599.11,1445.39 1563.98,1442.38C1481.99,1435.37 1400.42,1425.51 1318.6,1417.56C1276.05,1413.84 1233.67,1407.31 1191.21,1401.01C1163.01,1396.82 1134.77,1392.78 1106.53,1389.14C1076.22,1385.24 1045.88,1382.06 1015.55,1379.94C1002.28,1379.07 989,1378.15 975.73,1376.94C949.297,1374.53 922.868,1371.57 896.441,1368.62C870.066,1365.68 843.718,1362.55 817.307,1360.34C801.644,1358.66 787.139,1357.47 776.564,1356.08C769.03,1355.09 763.571,1354.04 760.913,1353.65L759.578,1353.46L759.489,1354.73C759.446,1354.7 759.404,1354.67 759.361,1354.64L759.159,1354.52ZM759.043,1354.47C759.078,1354.47 759.111,1354.48 759.136,1354.51L759.159,1354.52L759.163,1354.54L759.136,1354.51L759.099,1354.49L759.043,1354.47C759.013,1354.46 758.982,1354.47 758.954,1354.49C758.904,1354.52 758.877,1354.57 758.882,1354.63L758.902,1354.7C758.889,1354.67 758.882,1354.65 758.882,1354.63L758.853,1354.53C758.866,1354.44 758.88,1354.45 758.974,1354.44L759.043,1354.47Z" style="fill:rgb(196,154,36);"/>
                    </g>
                    <path d="M2409.26,1231.27C2408.65,1230.87 2406.76,1231.04 2404.09,1230.35C2400.44,1229.4 2397.55,1226.34 2391.58,1225.41C2383.75,1224.21 2373.9,1226.34 2364.15,1227.39C2347.42,1229.19 2330.79,1232.03 2323.55,1233.08C2251.62,1243.58 2176.8,1236.46 2103.89,1241.13C2085.24,1242.33 2066.72,1244.33 2048.4,1247.51C1983.6,1259.4 1918.38,1270.2 1852.81,1279.75C1776.59,1290.85 1699.99,1300.49 1623.42,1310.39C1546.82,1320.29 1470.22,1330.11 1394.03,1341.33C1393.67,1341.39 1393.41,1341.72 1393.47,1342.08C1393.52,1342.44 1393.85,1342.7 1394.21,1342.64C1498.81,1328.23 1604.07,1315.92 1709.22,1303.76C1779.43,1295.64 1849.56,1287.49 1919.4,1278.55C1963.27,1272.93 2007.03,1267.19 2050.6,1260.68C2068.48,1257.83 2086.55,1256.19 2104.72,1255.2C2178.11,1251.2 2253.31,1258.48 2325.74,1248.36C2332.94,1247.35 2349.6,1245.38 2366.15,1242.87C2375.69,1241.43 2385.53,1241.17 2392.86,1238.51C2398.4,1236.5 2400.64,1232.96 2404.14,1231.82C2406.63,1231 2408.47,1231.3 2409.12,1231.54C2409.19,1231.58 2409.28,1231.55 2409.32,1231.48C2409.36,1231.4 2409.33,1231.31 2409.26,1231.27Z" style="fill:rgb(196,154,36);"/>
                    <path d="M2086.16,1334.95C2081.71,1335.83 2076.86,1336.72 2071.82,1338.16C2061.1,1341.23 2049.5,1345.38 2037.5,1348.22C2026.88,1350.73 2016.08,1352.69 2005.55,1352.72C2002.37,1352.75 1981.19,1353.01 1969.07,1349.32C1962.65,1347.36 1958.88,1343.86 1958.67,1340.51C1958.56,1338.69 1959.18,1336.53 1961.48,1334.22C1971.26,1324.34 1985.65,1317.9 2001.84,1313.42C2022.98,1307.57 2047.29,1305.13 2068.61,1304.54C2069.97,1304.47 2078.8,1304.56 2088.27,1304.42C2096.05,1304.31 2103.99,1304.26 2109.36,1305.11C2112.42,1305.6 2114.62,1306.86 2116.34,1307.8C2119.29,1309.41 2120.11,1312.21 2121.05,1314.52C2122.37,1317.73 2121.12,1321.37 2117.75,1326.17C2115.45,1329.48 2111.69,1332.71 2106.76,1335.09C2103.73,1336.55 2100.16,1337.1 2096.87,1338.03C2096.47,1338.14 2096.09,1338.32 2095.68,1338.32C2092.9,1338.32 2092.19,1336.98 2089.78,1336.42C2088.14,1336.04 2087.05,1335.45 2086.16,1334.95ZM2090.55,1316.76C2090.17,1316.66 2089.8,1316.57 2089.42,1316.5C2079.77,1314.68 2070.01,1314.55 2068.61,1314.48C2047.91,1313.9 2024.1,1314.44 2003.4,1319.44C1988.2,1323.11 1974.76,1329.19 1965.56,1338.3C1964.81,1339.04 1964.18,1339.47 1964.4,1340.02C1964.7,1340.78 1965.8,1341.03 1967.02,1341.5C1968.15,1341.93 1969.5,1342.2 1970.96,1342.57C1982.64,1345.5 2002.52,1346.51 2005.55,1346.55C2015.59,1346.57 2025.97,1345.05 2036.03,1342.38C2047.69,1339.28 2059.14,1335.31 2068.98,1330.6C2075.37,1327.53 2080.62,1323.67 2085.79,1321.11C2085.95,1320.85 2086.12,1320.57 2086.28,1320.24C2086.64,1319.55 2086.7,1319.23 2087.25,1318.66C2087.59,1318.3 2088.1,1318.16 2088.54,1317.91L2090.55,1316.76Z" style="fill:rgb(196,154,36);"/>
                    <path d="M2513.35,1333.72C2512.81,1333.54 2512.43,1333.03 2512.43,1332.44C2511.09,1327.76 2514.49,1327.54 2516.17,1327.82C2517.54,1328.04 2518.82,1329.91 2520.09,1332.17C2522.11,1335.77 2520.75,1339.27 2516.02,1343.7C2515.3,1344.27 2514.7,1344.84 2513.9,1345.31C2510.97,1347.01 2507.63,1347.91 2504.37,1349C2488.97,1354.16 2472.24,1357.16 2454.98,1358.92C2407.3,1363.8 2355.32,1359.2 2311.6,1365C2294.82,1367.45 2276,1372.39 2258.17,1375.03C2250.09,1376.22 2242.22,1376.92 2234.84,1376.75C2233.57,1376.72 2229.56,1376.81 2227.35,1376.54C2226.09,1376.39 2225.45,1375.98 2225.88,1375.56C2225.94,1375.5 2226.03,1375.5 2226.09,1375.56C2226.15,1375.62 2226.15,1375.71 2226.1,1375.77L2234.84,1376.02C2242.16,1375.84 2249.91,1374.74 2257.86,1373.21C2275.59,1369.79 2294.24,1364.14 2310.94,1361.01C2354.1,1352.34 2405.97,1352.13 2453.34,1345.45C2469.64,1343.15 2485.36,1340.06 2500.1,1335.61C2503.14,1334.69 2506.06,1333.46 2509.13,1332.82C2509.97,1332.64 2510.74,1332.71 2511.59,1332.63C2512.35,1332.63 2512.22,1334.35 2512.57,1333.95C2512.77,1333.73 2513.26,1334.01 2513.34,1333.73L2513.35,1333.72ZM2515.42,1331.92C2515.66,1331.82 2515.92,1331.33 2515.92,1331.33C2515.92,1331.33 2515.65,1331.55 2515.42,1331.92Z" style="fill:rgb(196,154,36);"/>
                    <g transform="matrix(1.3436,0,0,1.26836,-271.535,-444.648)">
                        <path d="M795.767,1562.98C796.341,1563.14 797.069,1563.27 797.976,1563.33C799.131,1563.33 800.069,1564.32 800.069,1565.54C800.069,1566.77 799.131,1567.76 797.976,1567.76C793.961,1568.04 791.957,1566.76 791.179,1565.64C790.002,1563.94 790.593,1560.7 793.822,1557.71C799.035,1552.89 811.018,1547.46 817.083,1547.48C836.249,1547.37 871.364,1540.51 899.01,1541.86C913.814,1542.58 926.545,1545.76 934.226,1553.19C939.012,1557.81 938.446,1562.52 935.404,1566.82C931.164,1572.82 919.596,1577.86 915.75,1579.2C903.033,1583.34 882.499,1585.78 861.985,1585.2C841.635,1584.63 821.456,1581.16 809.064,1576.36C806.938,1575.56 804.397,1572.55 802.642,1570.08C801.738,1568.81 801.218,1567.64 800.553,1567.54C800.253,1567.49 799.998,1567.69 799.759,1568.15C799.737,1568.22 799.672,1568.25 799.613,1568.22C799.555,1568.2 799.525,1568.13 799.547,1568.07C799.799,1566.47 800.795,1566.46 802.1,1567.25C804.25,1568.54 807.256,1573.15 809.816,1573.83C822.262,1577.33 842.128,1577.96 861.985,1577.4C881.596,1576.85 901.209,1575.13 913.31,1570.99C916.027,1570.13 923.494,1567.33 927.854,1563.52C929.492,1562.09 930.93,1560.55 929.227,1558.8C922.731,1552.08 911.569,1549.25 898.662,1548.32C871.185,1546.33 836.156,1553.14 817.083,1553.04C812.459,1553.05 804.046,1557.11 798.941,1560.72C797.871,1561.48 796.474,1562.36 795.767,1562.98ZM795.444,1563.31C795.268,1563.52 795.256,1563.68 795.488,1563.75C795.683,1563.8 795.597,1563.57 795.444,1563.31Z" style="fill:rgb(196,154,36);"/>
                    </g>
                    <g transform="matrix(1,0,0,1,-1.39685,-38.4052)">
                        <path d="M173.689,1539.33C174.042,1539.43 174.436,1539.5 174.87,1539.54C175.761,1539.63 176.477,1539.12 177.594,1539.09C178.372,1539.07 179.195,1539.3 180.092,1539.39C185.166,1539.96 192.171,1540.09 200.497,1540.28C206.716,1540.42 213.65,1540.71 221.033,1540.78C264.955,1541.2 324.521,1538.55 341.314,1538.35C413.341,1537.65 485.901,1535.31 557.985,1529.98C606.123,1526.42 654.054,1521.6 701.44,1514.6C716.632,1512.36 731.818,1510.17 747.043,1508.37C782.629,1504.17 818.288,1501.05 853.989,1499.04C889.719,1497.03 925.456,1496.74 961.223,1496.14C976.528,1495.89 991.83,1495.51 1007.14,1495.3C1075.08,1494.41 1143.08,1495.52 1211.12,1498.4C1380.52,1505.58 1550.11,1523.07 1718.99,1542.25C1719.19,1542.27 1719.34,1542.45 1719.31,1542.66C1719.29,1542.86 1719.11,1543.01 1718.9,1542.99C1516.12,1520.92 1312.33,1500.49 1109.12,1499.14C1061.54,1498.83 1013.98,1499.26 966.521,1501.75C928.546,1503.74 890.75,1507.61 852.887,1511.3C843.441,1512.22 833.985,1513.04 824.538,1514C800.277,1516.43 776.066,1519.42 751.829,1522.43C735.705,1524.43 719.561,1526.36 703.44,1528.6C643.766,1536.82 583.287,1541.96 522.587,1544.63C462.158,1547.29 401.533,1547.52 341.314,1546.89C322.173,1546.66 247.418,1549 203.667,1545.69C193.673,1544.93 185.318,1543.75 179.569,1542.4C178.642,1542.18 177.741,1542.07 177.007,1541.7C175.968,1541.18 175.556,1540.39 174.748,1539.92L173.689,1539.33C172.685,1539.05 172.006,1538.58 171.662,1538.04C171.155,1537.6 170.976,1537.16 171.215,1536.59C171.246,1536.51 171.335,1536.47 171.413,1536.5C171.491,1536.54 171.528,1536.62 171.497,1536.7C171.326,1537.14 171.383,1537.61 171.662,1538.04C172.106,1538.43 172.802,1538.83 173.689,1539.33Z" style="fill:rgb(196,154,36);"/>
                    </g>
                    <g transform="matrix(1,0,0,1,-18.513,-15.7479)">
                        <path d="M123.516,1608.04C123.651,1607.97 123.81,1607.92 124.009,1607.91C125.475,1607.9 127.314,1607.44 130.085,1607.25C136.18,1606.82 145.071,1606.16 156.169,1605.3C158.295,1605.13 160.497,1605.09 162.767,1604.99C189.626,1603.79 225.697,1600.82 259.56,1598.31C300.755,1595.27 338.658,1592.95 352.778,1592.86C369.214,1592.9 386.207,1591.81 403.555,1591.1C443.129,1589.51 484.318,1588.6 524.19,1589.73C549.677,1590.46 574.639,1592.06 598.301,1597.1C673.968,1612.84 757.971,1620.77 842.077,1620.6C926.087,1620.44 1010.17,1612.19 1086.12,1596.3C1087.08,1596.1 1088.02,1596.7 1088.22,1597.66C1088.43,1598.61 1087.82,1599.55 1086.87,1599.75C1010.77,1616.44 926.45,1625.29 842.126,1626.51C757.471,1627.74 672.803,1621.27 596.4,1606.6C573.277,1602.27 548.962,1600.6 524.175,1601.24C484.573,1602.26 444.095,1609.31 404.901,1612.62C387.139,1614.13 369.652,1614.62 352.778,1614.66C336.743,1614.55 289.679,1618.05 242.192,1619.79C215.71,1620.76 189.13,1620.97 167.641,1620.68C163.706,1620.62 159.943,1620.66 156.387,1620.42C145.188,1619.67 135.969,1618.78 129.879,1616.69C124.102,1614.71 121.264,1612.44 120.394,1610.68C120.123,1608.21 119.806,1608.11 120.818,1607.94C121.067,1607.89 121.405,1607.71 121.913,1607.75C122.316,1607.78 122.867,1607.89 123.516,1608.04Z" style="fill:rgb(196,154,36);"/>
                    </g>
                    <path d="M2570.51,1538.64C2744,1502.13 2782.17,1509.92 2617.64,1550.62C2777.44,1595.24 2729.94,1629.45 2569.43,1562.13L2569.22,1562.18C2567.65,1562.54 2566.23,1563.05 2564.63,1563.23C2550.97,1564.7 2537.16,1562.97 2523.44,1562.53C2462.76,1560.61 2402.28,1556.24 2341.52,1555.39C2322.66,1555.13 2303.79,1555.13 2284.87,1555.59C2252.61,1556.32 2220.47,1556.43 2188.33,1556.11C2140.07,1555.63 2091.96,1554.23 2043.77,1552.9C2039.79,1552.78 2033.04,1557.7 2029.35,1559.06C2027.36,1559.79 2026.18,1559.59 2026.47,1557.47C2026.48,1557.38 2026.55,1557.32 2026.63,1557.33C2026.72,1557.34 2026.78,1557.42 2026.77,1557.5C2026.62,1559.21 2027.61,1559.26 2029.16,1558.59C2032.91,1556.98 2039.64,1551.56 2043.77,1551.44C2091.92,1550.11 2139.99,1548.78 2188.17,1546.66C2220.15,1545.25 2252.12,1543.51 2284.16,1541.1C2322.33,1538.29 2360.43,1537.2 2398.55,1536.93C2444.12,1536.61 2489.64,1537.07 2535.22,1537.14C2544.29,1537.15 2553.38,1536.54 2562.42,1537.25C2564.74,1537.44 2566.92,1537.98 2569.22,1538.34L2570.51,1538.64Z" style="fill:rgb(196,154,36);"/>
                    <path d="M1453.8,1652.2L1453.67,1651.85C1453.64,1651.77 1453.55,1651.73 1453.47,1651.76C1453.39,1651.79 1453.35,1651.88 1453.38,1651.96L1453.52,1652.31C1453.55,1652.38 1453.63,1652.42 1453.71,1652.39C1453.79,1652.36 1453.83,1652.27 1453.8,1652.2Z" style="fill:rgb(196,154,36);"/>
                    <path d="M1600.66,1659.15C1599.58,1658.78 1598.73,1658.82 1597.94,1658.99C1596.21,1659.36 1595.12,1660.79 1592.94,1660.42C1592.07,1660.42 1591.37,1661.13 1591.37,1662C1591.37,1662.86 1592.07,1663.57 1592.94,1663.57C1595.95,1663.05 1596.54,1660.62 1599.04,1659.71C1599.49,1659.55 1599.99,1659.45 1600.61,1659.45C1600.69,1659.47 1600.77,1659.41 1600.79,1659.33C1600.8,1659.24 1600.74,1659.16 1600.66,1659.15Z" style="fill:rgb(196,154,36);"/>
                    <path d="M1752.84,1664.24L1752.53,1663.85C1752.55,1663.85 1752.56,1663.84 1752.56,1663.83C1752.56,1663.82 1752.55,1663.81 1752.53,1663.81C1752.02,1663.62 1752,1663.95 1752.09,1664.05C1752.16,1664.14 1752.5,1664.2 1752.55,1664.34C1752.58,1664.42 1752.67,1664.46 1752.75,1664.43C1752.83,1664.4 1752.87,1664.32 1752.84,1664.24Z" style="fill:rgb(196,154,36);"/>
                    <g transform="matrix(0.91035,0,0,0.91035,18.2011,153.629)">
                        <path d="M1137.07,989.139C1137.38,989.745 1137.64,990.375 1137.9,991.043C1138.9,993.639 1138.07,996.273 1136.87,998.59C1135.24,1001.74 1131.61,1004.12 1127.14,1005.81C1121.15,1008.08 1113.11,1009.04 1105.37,1009.75C1096.62,1010.55 1088.37,1011.06 1084.72,1011.57C1074.63,1013.03 1064.04,1010.71 1053.65,1010.92C1051.19,1010.97 1048.77,1011.28 1046.37,1011.72C1039.66,1012.95 1032.83,1013.99 1025.89,1014.38C1019.08,1014.75 1012.2,1014.44 1005.31,1014.19C984.671,1013.46 963.867,1011.18 944.242,1008.94C937.644,1008.59 928.225,1008.92 919.235,1008.56C915.094,1008.4 911.177,1008.14 907.418,1007.33C901.804,1006.12 897.029,1003.57 893.448,999.536C892.476,998.44 891.77,997.111 891.076,995.755C886.573,986.965 889.466,979.691 897.565,974.1C911.164,964.712 946.594,962.017 954.256,961.99C986.604,962.238 1019.11,959.942 1051.35,962.035C1065.41,962.949 1079.34,964.944 1093.22,967.723C1100.82,969.27 1114.9,968.547 1125.27,972.003C1130.96,973.901 1135.62,976.847 1138.11,981.394C1138.55,982.286 1139.65,985.509 1139.33,987.542C1139.27,987.954 1139.38,988.446 1139.1,988.655C1137.44,989.889 1138.76,989.803 1137.16,989.092L1137.07,989.139ZM1133.14,984.544C1131.89,983.159 1130.2,982.427 1128.4,981.651C1125.67,980.477 1122.49,979.74 1119.08,979.367C1109.29,978.298 1098.11,979.639 1091.49,978.952C1073.39,976.853 1055.29,976.811 1037.13,976.965C1009.54,977.198 981.861,978.388 954.256,978.571C949.95,978.567 935.55,979.396 922.669,982.075C917.441,983.162 912.458,984.492 908.686,986.358C907.635,986.878 906.687,987.409 905.922,988.027C905.653,988.245 905.162,988.297 905.325,988.631C907.377,994.669 913.251,997.917 920.055,999.649C928.769,1001.87 938.386,1001.85 944.906,1002.96C961.176,1004.76 978.252,1006.83 995.379,1007.58C1005.49,1008.03 1015.6,1007.67 1025.57,1007.33C1032.32,1007.11 1039.01,1006.98 1045.6,1006.3C1054.5,1004.99 1063.76,1006.27 1072.81,1006.33C1076.49,1006.35 1080.14,1006.11 1083.69,1005.43C1089.27,1004.24 1106.15,1003.06 1118,998.608C1121.98,997.116 1124.73,994.883 1126.58,992.736C1127.67,991.464 1129.3,990.713 1128.93,988.432C1128.19,986.958 1128.79,985.164 1130.26,984.428C1131.21,983.954 1132.29,984.032 1133.14,984.544Z" style="fill:rgb(196,154,36);"/>
                    </g>
                    <g transform="matrix(0.91035,0,0,0.91035,18.2011,153.629)">
                        <path d="M248.515,801.877L248.054,801.502C247.722,800.175 246.153,800.303 244.327,800.265C241.476,800.207 238.107,800.675 236.461,800.694L205.584,799.355C197.271,799.167 189.233,799.779 181.27,800.81C161.494,803.373 142.567,808.291 122.43,809.73C116.608,809.73 111.881,805.003 111.881,799.181C111.881,793.359 116.608,788.632 122.43,788.632C142.07,790.036 161.022,788.065 180.471,788.124C189.031,788.15 197.615,788.454 206.387,789.723L237.403,794.573C239.29,795.188 243.836,795.702 246.513,797.365C248.362,798.513 249.506,799.791 249.02,801.502L248.576,801.869L248.591,801.868C248.683,801.88 248.747,801.964 248.735,802.056L248.541,801.898L248.403,802.012C248.432,801.929 248.41,801.965 248.468,801.901L248.515,801.877Z" style="fill:rgb(196,154,36);"/>
                    </g>
                    <path d="M582.446,1019.51L584.72,1019.38C605.809,1019.18 627.088,1016.82 648.431,1013.38C698.036,1005.41 747.962,991.647 796.563,985.103C820.007,982.677 843.47,981.402 866.942,980.458C902.125,979.044 937.328,978.719 972.528,979.959C1060.47,983.057 1148.29,993.914 1234.84,1004.81C1256.26,1007.51 1278.11,1008.84 1300.14,1009.51C1351.3,1011.08 1403.48,1008.82 1453.6,1009.12C1454.87,1009.12 1455.9,1010.16 1455.9,1011.43C1455.9,1012.7 1454.87,1013.74 1453.6,1013.74C1410.58,1014.03 1366.07,1016.47 1321.96,1016.34C1292.27,1016.25 1262.76,1014.94 1234.02,1011.37C1147.65,1000.66 1060.03,989.89 972.288,987.041C937.293,985.904 902.262,985.709 867.328,987.923C844.103,989.395 820.964,992.093 797.86,995.482C749.257,1001.09 699.2,1013.9 649.566,1020.9C627.815,1023.97 606.15,1025.94 584.72,1025.73C584.061,1025.72 582.445,1025.9 581.426,1025.74C580.324,1025.58 579.503,1025.12 579.007,1024.62C577.771,1023.41 577.753,1021.42 578.967,1020.18C579.901,1019.23 581.294,1019 582.446,1019.51Z" style="fill:rgb(196,154,36);"/>
                    <path d="M116.761,1066.94C128.976,1068.07 150.238,1066.94 184.726,1065.68C220.757,1064.37 271.312,1062.61 341.472,1066.68C379.985,1068.92 424.347,1073.01 475.506,1078.78C533.234,1085.28 599.624,1093.79 675.733,1106.74C703.345,1111.36 731.077,1114.24 758.902,1116.17C823.153,1120.62 887.884,1119.87 952.678,1123.1C1057.74,1128.9 1163.11,1124.75 1268.39,1115.69C1425.68,1102.16 1582.76,1077.85 1738.5,1061.37C1739.04,1061.31 1739.44,1060.83 1739.39,1060.28C1739.33,1059.74 1738.85,1059.34 1738.3,1059.39C1582.45,1074.07 1425.13,1096.2 1267.78,1108.25C1162.83,1116.28 1057.86,1119.9 953.25,1113.37C897.855,1109.62 842.447,1108.88 787.409,1105.12C750.857,1102.63 714.484,1098.76 678.386,1091.9C616.459,1080.21 561.002,1070.97 511.247,1064.52C469.894,1059.15 432.501,1055.61 398.771,1053.19C309.436,1046.76 245.643,1047.85 200.795,1051.42C156.624,1054.94 131.069,1060.66 117.021,1060.67C115.29,1060.6 113.827,1061.95 113.755,1063.68C113.683,1065.41 115.03,1066.87 116.761,1066.94Z" style="fill:rgb(196,154,36);"/>
                    <path d="M2346.82,945.622C2344.73,944.173 2325.47,943.139 2301.18,944.257C2262.03,946.06 2209.5,951.968 2199.47,952.895C2173.63,956.501 2147.98,961.394 2122.11,965.603C2092.15,970.476 2061.97,974.365 2031.93,979.083C2001.9,983.8 1971.94,988.819 1941.86,992.514C1904.92,997.051 1867.89,999.984 1830.74,1000.31C1830.13,1000.31 1829.63,1000.81 1829.63,1001.42C1829.63,1002.03 1830.13,1002.53 1830.74,1002.53C1868.01,1002.85 1905.18,1000.36 1942.33,996.654C1972.55,993.637 2002.78,990.071 2032.93,985.723C2063.01,981.385 2092.92,975.74 2123.02,971.998C2148.9,968.782 2174.82,966.963 2200.72,965.389L2343.53,950.968C2345.01,951.876 2346.94,951.414 2347.85,949.939C2348.76,948.464 2348.3,946.529 2346.82,945.622Z" style="fill:rgb(196,154,36);"/>
                    <path d="M157.137,757.195C170.404,747.307 171.981,741.938 182.556,739.662C188.697,738.34 197.824,737.799 214.031,738.08C238.124,738.403 261.151,739.218 283.236,739.829C307.408,740.498 330.423,741.191 352.385,741.966C403.863,743.783 449.551,745.858 490.59,749.551C612.708,760.542 693.823,778.381 766.013,781.129C766.621,781.156 767.137,780.683 767.163,780.075C767.19,779.466 766.717,778.95 766.109,778.924C703.044,775.909 633.152,762.34 535.195,749.735C504.965,745.846 472.095,741.905 435.9,738.457C414.901,736.457 392.823,734.33 369.463,732.886C355.142,732 340.345,731.4 325.059,730.901C310.691,730.432 295.887,730.027 280.625,729.972C259.314,729.894 237.13,730.452 213.981,731.112C190.222,731.95 180.728,733.434 174.679,737.383C168.829,741.202 166.379,747.136 156.937,756.966C156.874,757.022 156.867,757.118 156.923,757.181C156.978,757.244 157.074,757.251 157.137,757.195Z" style="fill:rgb(196,154,36);"/>
                    <path d="M188.578,845.387C188.038,844.937 187.463,844.478 186.883,844.039C178.137,837.425 163.781,827.126 162.899,821.858C162.352,818.59 164.964,814.741 175.154,815.153C207.306,816.481 253.125,822.07 303.229,829.307C366.162,838.398 435.874,849.992 493.978,856.765C524.715,860.347 552.175,862.663 573.595,862.67C658.211,862.744 742.867,861.191 827.544,858.957C886.787,857.393 946.038,855.414 1005.3,853.49C1143.63,848.998 1281.98,844.359 1420.2,842.262C1420.85,842.249 1421.38,842.765 1421.4,843.416C1421.41,844.066 1420.9,844.604 1420.25,844.618C1282.07,848.279 1143.83,854.972 1005.55,860.542C946.29,862.929 887.022,865.028 827.762,866.772C743.017,869.264 658.286,870.861 573.595,870.936C551.917,870.943 524.121,868.656 493.015,865.026C434.832,858.238 364.961,847.044 302.027,837.367C252.241,829.713 206.822,822.941 174.858,821.064C172.596,820.93 170.861,820.966 169.578,821.194C169.261,821.251 168.903,821.362 168.648,821.452C168.793,821.679 169.027,822.04 169.246,822.356C170.085,823.56 171.357,824.898 172.88,826.314C180.753,833.635 194.557,842.741 196.348,845.95C197.057,847.221 196.945,848.292 196.574,849.053C196.211,849.799 195.495,850.638 193.96,850.817C193.085,850.919 191.556,850.78 189.267,850.168L158.482,843.192C155.7,842.59 150.057,839.944 147.079,838.992C145.745,838.566 145.02,838.393 145.833,839.374C145.89,839.436 145.886,839.532 145.824,839.589C145.762,839.646 145.665,839.641 145.609,839.579C144.223,838.203 145.135,837.964 147.232,838.418C150.233,839.067 155.995,841.136 158.77,841.463L188.578,845.387ZM192.595,846.104C193.008,846.164 193.268,846.125 193.241,845.884C193.194,845.465 192.877,845.738 192.595,846.104Z" style="fill:rgb(196,154,36);"/>
                    <path d="M2358.47,725.203C2359.41,724.571 2360.37,723.98 2361.33,723.468C2363.25,722.441 2365.17,721.901 2366.83,721.63C2368.49,721.361 2369.85,721.498 2371.24,722.357C2372.47,723.117 2372.29,724.158 2372.17,724.999C2372.01,726.247 2370.41,727.145 2369.7,727.516C2363.58,729.336 2357.28,730.725 2350.88,731.82L2350.29,732.399C2350.23,732.459 2350.14,732.46 2350.08,732.402C2350.02,732.343 2350.02,732.247 2350.08,732.186L2350.35,731.908C2346.59,732.545 2342.79,733.079 2338.97,733.54C2323.46,735.411 2307.65,735.984 2292.43,736.711C2270.48,737.244 2249.09,738.724 2227.77,740.185C2195.58,742.393 2163.62,744.909 2130.59,747.595C2082.48,750.944 2034.13,752.694 1985.68,752.702C1929.46,752.712 1873.16,750.29 1816.89,748.46C1760.56,746.628 1704.29,745.022 1648.29,744.304C1647.74,744.304 1647.3,743.86 1647.3,743.314C1647.3,742.767 1647.74,742.323 1648.29,742.323C1696.33,741.735 1744.57,742.117 1792.89,742.152C1841.05,742.187 1889.25,741.847 1937.4,740.915C1969.5,740.294 2001.55,739.119 2033.54,737.776C2065.58,736.432 2097.56,734.932 2129.42,732.357C2156.99,730.29 2183.8,727.834 2210.67,726.468C2237.65,725.095 2264.65,724.809 2292.43,725.44C2307.46,726.158 2323.05,727.15 2338.46,726.713C2345.21,726.522 2351.9,726.064 2358.47,725.203ZM2368.68,723.515C2367.45,722.573 2365.67,722.5 2363.74,723.062C2362.28,723.485 2360.77,724.213 2359.32,725.092C2362.47,724.665 2365.59,724.144 2368.68,723.515ZM2368.79,723.602L2369.38,724.219C2369.2,723.984 2369,723.777 2368.79,723.602Z" style="fill:rgb(196,154,36);"/>
                    <path d="M2360.69,804.145C2361.38,803.825 2361,803.417 2359.96,803.17C2358.27,802.771 2354.9,802.568 2354.18,802.793C2351.8,803.391 2349.31,803.966 2346.69,804.31C2344.16,804.641 2341.7,804.659 2339.25,804.571C2330.08,805.132 2320.62,805.64 2311.2,806.67C2304.85,807.364 2298.6,808.371 2292.52,809.41C2287.59,810.442 2282.57,810.807 2277.52,811.096C2264.89,811.817 2252,811.416 2239.55,813.072C2226.88,815.506 2214.23,817.558 2201.36,819.129C2188.5,820.699 2175.62,821.779 2162.74,823.362C2162.41,823.385 2162.17,823.669 2162.19,823.994C2162.21,824.32 2162.5,824.566 2162.82,824.542L2240.8,824.302C2253.1,823.204 2265.77,824.6 2278.2,824.007C2283.96,823.732 2289.65,822.959 2295.24,821.646L2340.12,810.691C2341.68,810.202 2343.2,809.671 2344.76,809.02C2348.27,807.554 2351.62,805.849 2354.68,804.044L2360.55,803.877C2360.47,803.917 2360.45,804.01 2360.49,804.083C2360.53,804.157 2360.62,804.185 2360.69,804.145Z" style="fill:rgb(196,154,36);"/>
                    <path d="M549.502,1098.86L547.334,1098.65C547.355,1098.65 547.373,1098.64 547.373,1098.62C547.373,1098.59 547.355,1098.58 547.334,1098.58C546.86,1098.54 547.499,1099.04 548.284,1099.23C548.89,1099.38 549.538,1099.33 549.75,1099.03C549.799,1098.96 549.783,1098.87 549.714,1098.82C549.646,1098.77 549.551,1098.79 549.502,1098.86Z" style="fill:rgb(196,154,36);"/>
                    <path d="M549.804,1092.39L549.806,1091.96C549.795,1091.73 549.984,1092.07 550.178,1092.08L550.14,1092.12L550.127,1092.16L550.02,1092.23L549.804,1092.39ZM550.61,1092.13C550.686,1091.97 550.791,1091.81 550.976,1091.76C554.294,1090.78 554.116,1093.87 550.61,1092.13ZM550.373,1092L550.629,1091.84C550.629,1091.94 550.579,1092.02 550.501,1092.07L550.61,1092.13C550.484,1092.38 550.438,1092.63 550.246,1092.35C550.163,1092.34 550.106,1092.26 550.119,1092.18L550.127,1092.16L550.228,1092.09L550.214,1092.08L550.207,1092.09L550.178,1092.08L550.18,1092.08L550.196,1092.07C550.115,1092.03 550.063,1091.94 550.063,1091.84L550.373,1092Z" style="fill:rgb(196,154,36);"/>
                    <path d="M548.072,1094.46L549.56,1094.13C549.578,1094.15 549.607,1094.15 549.625,1094.13C549.643,1094.11 549.643,1094.08 549.625,1094.07L548.072,1093.73C547.87,1093.73 547.705,1093.89 547.705,1094.1C547.705,1094.3 547.87,1094.46 548.072,1094.46Z" style="fill:rgb(196,154,36);"/>
                    <path d="M557.294,1093.83C557.234,1093.34 557.152,1092.83 556.921,1092.47C556.729,1092.18 556.44,1091.99 555.993,1091.97C555.856,1091.97 555.745,1092.08 555.745,1092.21C555.745,1092.35 555.856,1092.46 555.993,1092.46L556.994,1093.88C557.008,1093.96 557.086,1094.01 557.169,1094C557.252,1093.99 557.308,1093.91 557.294,1093.83Z" style="fill:rgb(196,154,36);"/>
                    <path d="M563.189,1093.41L562.988,1093.56C562.984,1093.48 563.049,1093.41 563.133,1093.4L563.189,1093.41ZM563.455,1093.21L563.9,1092.3C564.061,1092.3 564.191,1092.43 564.191,1092.59C564.191,1092.75 564.061,1092.88 563.9,1092.88L563.455,1093.21L563.292,1093.55C563.289,1093.49 563.246,1093.43 563.189,1093.41L563.455,1093.21Z" style="fill:rgb(196,154,36);"/>
                    <path d="M565.68,1093.5L565.37,1093.34C565.37,1093.53 565.217,1093.68 565.029,1093.68C564.842,1093.68 564.689,1093.53 564.689,1093.34C564.815,1092.46 565.175,1092.51 565.417,1092.73C565.569,1092.87 565.655,1093.23 565.68,1093.5L565.791,1093.56C565.756,1093.54 565.718,1093.54 565.685,1093.55C565.707,1093.73 565.698,1093.85 565.668,1093.84C565.591,1093.8 565.556,1093.71 565.59,1093.63C565.609,1093.59 565.644,1093.56 565.685,1093.55L565.68,1093.5Z" style="fill:rgb(196,154,36);"/>
                    <path d="M564.928,1093.15C564.952,1093.08 565.034,1093.03 565.113,1093.06C565.193,1093.08 565.24,1093.16 565.216,1093.25C565.195,1093.37 565.077,1093.3 564.928,1093.15ZM564.585,1092.78C564.525,1092.89 564.409,1092.96 564.276,1092.96C564.072,1092.96 563.907,1092.8 563.907,1092.59C564.043,1091.63 564.471,1091.74 564.65,1092C564.776,1092.17 564.806,1092.81 564.853,1093.08L564.928,1093.15L564.924,1093.16C564.891,1093.24 564.869,1093.19 564.853,1093.08L564.794,1093.02L564.585,1092.78Z" style="fill:rgb(196,154,36);"/>
                    <path d="M574.955,1092.41C574.773,1091.8 575.371,1091.88 575.614,1092.16C575.688,1092.24 575.76,1092.47 575.923,1092.79C576.021,1092.99 575.942,1093.22 575.747,1093.32C575.553,1093.42 575.316,1093.34 575.219,1093.14C575.065,1092.83 574.954,1092.62 574.928,1092.51C574.919,1092.47 574.929,1092.44 574.955,1092.41Z" style="fill:rgb(196,154,36);"/>
                    <path d="M625.8,1095.54L627.905,1095.35C627.972,1095.35 628.026,1095.29 628.026,1095.23C628.026,1095.16 627.972,1095.11 627.905,1095.11C627.847,1095.1 626.083,1095.83 625.927,1095.21C625.813,1094.76 625.846,1095.95 625.602,1095.77C625.665,1095.82 625.762,1095.81 625.816,1095.75C625.871,1095.69 625.864,1095.59 625.8,1095.54Z" style="fill:rgb(196,154,36);"/>
                    <path d="M632.487,1096.51C632.551,1096.48 632.629,1096.5 632.67,1096.57C632.717,1096.63 632.699,1096.73 632.63,1096.78L632.487,1096.51ZM632.474,1096.49L631.997,1095.6C631.997,1095.37 632.188,1095.18 632.423,1095.18C632.658,1095.18 632.849,1095.37 632.849,1095.6L632.474,1096.49L632.487,1096.51L632.458,1096.53L632.474,1096.49Z" style="fill:rgb(196,154,36);"/>
                    <g transform="matrix(1,0,0,1,-0.49257,1.23795)">
                        <path d="M1183.21,1564.38C1182.79,1564.72 1183,1564.96 1183.6,1565.09C1184.42,1565.26 1186.19,1565.19 1186.55,1565.22L1203.14,1564.99L1241.35,1560.79C1252.52,1559.84 1263.91,1559.62 1275.45,1559.99C1288.72,1560.41 1302.01,1561.8 1315.33,1562.83C1328.96,1563.89 1342.47,1564.69 1355.65,1565.27C1382.3,1566.11 1408.41,1569.71 1434.62,1572.63C1446.01,1573.91 1457.43,1574.87 1468.86,1575.86C1485.3,1577.28 1501.77,1578.37 1518.35,1579.06C1536.5,1579.19 1554.63,1579.03 1572.89,1578.6C1594.07,1578.11 1615.17,1577.01 1636.35,1576.05C1657.5,1575.09 1678.6,1574.3 1699.6,1572.89C1700.11,1572.87 1700.5,1572.45 1700.49,1571.94C1700.47,1571.43 1700.05,1571.03 1699.54,1571.05C1684.53,1571.1 1669.48,1571.1 1654.4,1570.65C1639.36,1570.2 1624.35,1569.4 1609.32,1568.35C1579.22,1566.23 1549.38,1562.96 1519.67,1559.14C1500.14,1557.37 1480.82,1554.6 1461.45,1552.34C1448.37,1550.82 1435.27,1549.46 1422.14,1548.49C1400.09,1546.87 1377.98,1546.4 1355.65,1547.14C1342.21,1547.75 1328.4,1547.79 1314.47,1548.33C1305.2,1548.69 1295.98,1549.38 1286.73,1550.08C1271.02,1551.27 1255.55,1552.87 1240.66,1555.92L1202.92,1563.18L1186.55,1564.39L1183.41,1564.6C1183.48,1564.55 1183.48,1564.45 1183.42,1564.39C1183.37,1564.33 1183.27,1564.32 1183.21,1564.38Z" style="fill:rgb(196,154,36);"/>
                    </g>
                </g>
            </g>
        </g>
    </g>
</svg>
