<?xml version="1.0" encoding="utf-8"?>
<!-- Generator: Adobe Illustrator 23.0.6, SVG Export Plug-In . SVG Version: 6.00 Build 0)  -->
<svg version="1.1" id="Calque_1" xmlns="http://www.w3.org/2000/svg" xmlns:xlink="http://www.w3.org/1999/xlink" x="0px" y="0px"
	 viewBox="0 0 1920 1080" style="enable-background:new 0 0 1920 1080;" xml:space="preserve">
<style type="text/css">
	.st0{fill-rule:evenodd;clip-rule:evenodd;fill:#D4AD40;}
	.st1{clip-path:url(#SVGID_2_);}
	.st2{fill-rule:evenodd;clip-rule:evenodd;fill:#C49A24;}
	.st3{display:none;}
	.st4{display:inline;}
	.st5{clip-path:url(#SVGID_4_);}
</style>
<g transform="matrix(1.09848,0,0,1.09848,-19.9935,-168.758)">
	<g id="WOOD">
		<path class="st0" d="M1765.8-33.6l0.8,0l9.3,280.6c-75.3,0.6-166.3,2.2-273.5,2.1c-99.7,0-217.2-3.4-371.8-3.9
			c-205.5-0.7-391.4,2.7-568.1,3.5c-36.4,0.2-200-3.2-234.2-3.4c-148.9-0.8-261.2-2.1-316.9,0c-4.1,0.2-2.2-247.1-2-267.5l-0.8,0
			L8.4-32.6c-4.7-1,268.4,5.9,335.1,4C502.6-33.4,869-31,919.6-30.5c10.9,0.1,103.6,0.1,188.5-1c84.9-1,240.7-4.7,439.5-2.9
			c63.5,0.6,217.9-5.1,217.9-5.1L1765.8-33.6z"/>
		<g>
			<defs>
				<path id="SVGID_1_" d="M1765.8-33.6l0.8,0l9.3,280.6c-75.3,0.6-166.3,2.2-273.5,2.1c-99.7,0-217.2-3.4-371.8-3.9
					c-205.5-0.7-391.4,2.7-568.1,3.5c-36.4,0.2-200-3.2-234.2-3.4c-148.9-0.8-261.2-2.1-316.9,0c-4.1,0.2-2.2-247.1-2-267.5l-0.8,0
					L8.4-32.6c-4.7-1,268.4,5.9,335.1,4C502.6-33.4,869-31,919.6-30.5c10.9,0.1,103.6,0.1,188.5-1c84.9-1,240.7-4.7,439.5-2.9
					c63.5,0.6,217.9-5.1,217.9-5.1L1765.8-33.6z"/>
			</defs>
			<clipPath id="SVGID_2_">
				<use xlink:href="#SVGID_1_"  style="overflow:visible;"/>
			</clipPath>
			<g class="st1">
				<g>
					<path class="st2" d="M-6.9,235.8c0,0,319.6,2.4,407.8,4.1c88.2,1.7,310.6,2.2,540.5-1.8c229.9-4,424.7,3.8,489.2,3.1
						c64.5-0.7,179.2,0.7,349.2-5.1c170-5.8,35.1,21.2,35.1,21.2l-56.6,40.8L22.4,276.8L-6.9,235.8z"/>
				</g>
				<g id="Calque4">
					<g transform="matrix(1,0,0,1,-7.07185,-86.5481)">
						<path class="st2" d="M-52,278c2.9,1.2,0.8,1,4.7,1.9c0.4,0.1,0.6,0.1,1.1,0.2c3.2,0.2,6.6,0,9.9,0c47.2,0.1,94.3,0,141.5-0.3
							c24.4-0.2,48.8-0.5,73.2-0.8c97.4-1.3,194.7-3.3,292.2-4.2c24.5-0.2,49-0.4,73.6-0.4c36.8-0.1,73.6,0,110.4,0.1
							c46,0.1,92.1,0.3,138.1,0.6c46.1,0.3,92.1,0.8,138.1,1.1c16.7,0.1,33.4,0.2,50.1,0.3c38.9,0.1,77.9-0.1,116.8,0
							c55.6,0.1,111.2,0.6,166.9,0.6c44.5,0,89-0.3,133.4-0.5c66.7-0.4,133.4-0.9,200.1-1.3c30.7-0.2,61.3-0.8,92-1.2
							c18.4-0.2,36.7-0.1,55.1-0.3c27.4-0.3,54.8-0.6,82.2-0.9c4,0,8,0,11.9-0.1c9.3-0.2,18.6-0.4,27.8-0.8
							c5.8-0.2,11.3-0.6,17.1-0.8c3,0,5.5-0.6,5.5-1.4c0-0.8-2.4-1.5-5.5-1.5c-5.9-0.3-11.4-0.6-17.3-0.8
							c-9.4-0.3-18.8-0.5-28.3-0.5c-4,0-8.1,0-12.1,0.1c-27.6,0.3-55.1,0.7-82.6,1.4c-18.3,0.4-36.4,1.1-54.7,1.4
							c-30.4,0.6-60.8,0.6-91.2,0.6c-26.7-0.1-53.4-0.2-80.1-0.2c-62.2-0.1-124.5,0-186.8,0.1c-16,0-32,0-48,0.1
							c-64,0.3-128,1.2-192,1.5c-37.4,0.1-74.7-0.1-112,0c-16,0-32,0.1-48,0.2c-46,0.1-92.1,0.3-138.1,0.2
							c-75.2-0.1-150.4-0.5-225.7-0.6c-32.3-0.1-64.5-0.2-96.8-0.1c-104.7-0.1-209.3,0.3-313.9,1.2c-62.6,0.6-125.1,1.5-187.7,1.8
							c-4.9,0-9.7,0-14.6,0.1c-0.4,0-0.9,0-1.3,0c-4.9,0.8-1.9,0.8-5,2.1c-1.4,0-2.6,0.3-2.6,0.7C-54.6,277.7-53.5,278-52,278z"/>
					</g>
					<path class="st2" d="M-23.6,158.2c3.8,0.4,7.6,0.7,11.8,0.8c5.8,0.2,12,0.2,18.3,0.2c23.3-0.3,48.6-2.1,69.5-2.2
						c12.7-0.1,25.5-0.2,38.3-0.4c50.7-0.7,101.8-1.7,152.7-2.1c27.2-0.2,54.5-0.2,81.6,0.2c17.7,0.2,35.4,0.4,53.1,0.4
						c41.1,0.1,82.3-0.1,123.4,0.3c67.7,0.6,135.4,1.6,203.2,2.6c45.2,0.7,90.4,1.3,135.6,1.8c48.5,0.5,96.9,0.7,145.4,0.5
						c29.1-0.2,58.3-0.7,87.4-1.3c43.6-1,87.1-2.3,130.5-3.6c0.2,0,0.3,0,0.2-0.1c0,0-0.2-0.1-0.3-0.1c-43.4,1.2-86.9,2.5-130.5,3.3
						c-29.1,0.6-58.2,0.9-87.3,1c-64.6,0.3-129.1-0.3-193.6-1.2c-96.8-1.5-193.5-3.9-290.1-5.3c-17.7-0.3-35.4-0.4-53-0.5
						c-41.1-0.2-82.2-0.2-123.3-0.7c-36.5-0.5-73.2-0.4-109.9,0.1c-43.8,0.6-87.5,1.6-131,2.5c-10.9,0.2-21.8,0.5-32.7,0.7
						c-20.9,0.4-46.1,2.4-69.4,3.1c-6.1,0.2-12,0.3-17.8,0.2C-15.7,158.3-19.7,158.3-23.6,158.2C-23.6,158.1-23.7,158.1-23.6,158.2
						C-23.7,158.2-23.7,158.2-23.6,158.2z"/>
					<g transform="matrix(1,0,0,1,-72.1074,-30.5887)">
						<path class="st2" d="M477.4,216.7l0.1,0c0.8,0.1,1,0.2,0.6,0.4c-0.4,0.3-1,0.6-2.3,0.8c-0.8,0.2-2,0.3-3.3,0.4
							c-3.4,0.3-7.9,0.5-13.2,0.6c-3.9,0.1-8.3,0-12.9-0.1c-7-0.1-14.7-0.3-22.3-0.6c-21.4-0.8-42.7-2.2-50.7-2.6
							c-31.3-1.4-62.4-3.2-93.1-5.1c-7.7-0.5-15.4-1-23.1-1.4c-9.7-0.6-19.3-1-29.1-1.5c-7.8-0.3-15.6-0.5-23.5-0.5
							c-18.5-0.1-37.1,0.4-55.3,0.3c0,0-0.1,0-0.1,0c0,0,0,0,0.1,0c18.3-0.1,36.8-0.6,55.3-0.7c8-0.1,15.9,0,23.9,0.2
							c14.8,0.3,29.6,0.8,44.4,1.4c33.9,1.5,67.6,3.7,101.8,5.2c8,0.3,29.5,1.4,50.8,2.2c7.4,0.3,14.8,0.6,21.6,0.9
							c5.4,0.2,10.3,0.3,14.7,0.4c3.7,0.1,6.9,0.1,9.6,0.1c1,0,1.9-0.1,2.8-0.1c1.3,0,2.1,0.1,3,0c0.3,0,0.4,0.1,0.5,0
							C478,216.9,477.8,216.8,477.4,216.7c-1-0.1-2.6-0.3-2.5-0.3c0,0,0.1,0,0.1,0c-0.1,0-0.2,0-0.2,0c0.1,0,0.1,0,0.2,0
							c0,0,0,0,0,0C475.4,216.5,476.7,216.6,477.4,216.7z"/>
					</g>
					<g transform="matrix(1,0,0,1,-96.7855,-25.8594)">
						<path class="st2" d="M481.2,193.9l-0.3-0.3c0,0,0.2-0.1,0.8-0.1c0.7,0,2-0.1,4-0.1c2.5,0,6-0.1,10.2-0.1
							c8.8,0,20.9,0.2,33.9,0.3c22,0.3,43.9,0.8,65.9,1.4c19.7,0.5,39.4,1.1,59,1.7c13.1,0.4,26.2,0.8,39.3,1.1
							c35.2,0.9,70.2,2.4,105.4,3.8c23.3,0.9,46.7,1.9,70,2.6c25.1,0.9,50.2,1.5,75.3,1.9l290.8,4.8c27.5,0.4,55.1,0.1,82.7,0
							c18.6,0,37.2,0.1,55.8,0.3c2.2,0,3.9,0.5,3.9,1c0,0.6-1.8,1-3.9,1c-16.1,0.2-32.2,0.6-48.4,0.9c-6.9,0.1-13.9,0.2-20.8,0.3
							c-23.4,0.3-46.7,0.4-70,0c-29.2-0.4-58.3-0.9-87.4-1.5c-67.9-1.5-135.4-3.7-203.1-5.4c-35.2-0.8-70.3-2.2-105.4-3.6
							c-23.3-0.9-46.7-1.8-70.1-2.6c-25.1-0.8-50.2-1.5-75.3-2c-11-0.2-22-0.4-33-0.7c-21.9-0.5-43.8-1.2-65.6-1.8
							c-21.8-0.6-43.6-1.3-65.5-1.8c-13-0.4-25-0.6-33.7-0.9c-6.2-0.2-10.8-0.4-13-0.5l-1.1,0l-0.1,0.3c0,0-0.1,0-0.1,0L481.2,193.9
							z M481.1,193.9C481.1,193.9,481.2,193.9,481.1,193.9L481.1,193.9L481.1,193.9L481.1,193.9L481.1,193.9L481.1,193.9
							C481.1,193.9,481.1,193.9,481.1,193.9c-0.1,0-0.1,0-0.1,0l0,0c0,0,0,0,0,0l0,0C481,193.9,481,193.9,481.1,193.9L481.1,193.9z"
							/>
					</g>
					<path class="st2" d="M1830.3,146.8c-0.5-0.1-2.1-0.1-4.3-0.2c-3-0.2-5.4-0.9-10.4-1.1c-6.5-0.3-14.6,0.2-22.7,0.4
						c-13.8,0.4-27.6,1-33.6,1.2c-59.5,2.3-121.5,0.7-181.8,1.8c-15.4,0.3-30.8,0.7-45.9,1.4c-53.6,2.6-107.6,4.9-161.9,7
						c-63.1,2.4-126.5,4.5-189.9,6.7c-63.4,2.2-126.8,4.3-189.9,6.7c-0.3,0-0.5,0.1-0.5,0.2c0,0.1,0.3,0.1,0.6,0.1
						c86.6-3.1,173.7-5.8,260.7-8.5c58.1-1.8,116.2-3.5,174-5.5c36.3-1.2,72.5-2.5,108.6-3.9c14.8-0.6,29.8-1,44.8-1.2
						c60.7-0.9,123,0.7,182.9-1.5c6-0.2,19.7-0.6,33.4-1.2c7.9-0.3,16-0.4,22.1-0.9c4.6-0.4,6.4-1.2,9.3-1.5
						c2.1-0.2,3.6-0.1,4.1-0.1C1830.3,146.9,1830.3,146.9,1830.3,146.8C1830.4,146.8,1830.4,146.8,1830.3,146.8z"/>
					<path class="st2" d="M1562.9,169.4c-3.7,0.2-7.7,0.4-11.9,0.7c-8.9,0.7-18.5,1.6-28.4,2.2c-8.8,0.5-17.7,1-26.4,1
						c-2.6,0-20.2,0.1-30.2-0.7c-5.3-0.4-8.4-1.2-8.6-1.9c-0.1-0.4,0.4-0.9,2.3-1.4c8.1-2.2,20-3.6,33.4-4.5
						c17.5-1.3,37.6-1.8,55.3-1.9c1.1,0,8.4,0,16.3,0c6.4,0,13,0,17.5,0.2c2.5,0.1,4.4,0.4,5.8,0.6c2.4,0.4,3.1,1,3.9,1.5
						c1.1,0.7,0.1,1.5-2.7,2.5c-1.9,0.7-5,1.4-9.1,1.9c-2.5,0.3-5.5,0.4-8.2,0.6c-0.3,0-0.6,0.1-1,0.1c-2.3,0-2.9-0.3-4.9-0.4
						C1564.5,169.6,1563.6,169.5,1562.9,169.4z M1566.5,165.4c-0.3,0-0.6,0-0.9-0.1c-8-0.4-16.1-0.4-17.2-0.4
						c-17.1-0.1-36.8,0-54,1.1c-12.6,0.8-23.7,2.1-31.3,4.1c-0.6,0.2-1.1,0.3-1,0.4c0.2,0.2,1.2,0.2,2.2,0.3
						c0.9,0.1,2.1,0.2,3.3,0.2c9.7,0.6,26.1,0.9,28.6,0.9c8.3,0,16.9-0.3,25.2-0.9c9.7-0.7,19.1-1.5,27.3-2.6
						c5.3-0.7,9.6-1.5,13.9-2.1c0.1-0.1,0.3-0.1,0.4-0.2c0.3-0.2,0.3-0.2,0.8-0.3c0.3-0.1,0.7-0.1,1.1-0.2L1566.5,165.4z"/>
					<path class="st2" d="M1916.5,169.1c-0.4,0-0.8-0.2-0.8-0.3c-1.1-1,1.7-1.1,3.1-1c1.1,0,2.2,0.5,3.2,0.9
						c1.7,0.8,0.5,1.5-3.4,2.5c-0.6,0.1-1.1,0.2-1.8,0.4c-2.4,0.4-5.2,0.6-7.9,0.8c-12.7,1.1-26.6,1.8-40.9,2.2
						c-39.5,1.1-82.5,0.1-118.7,1.3c-13.9,0.5-29.5,1.6-44.2,2.2c-6.7,0.3-13.2,0.4-19.3,0.4c-1.1,0-4.4,0-6.2,0
						c-1,0-1.6-0.1-1.2-0.2c0,0,0.1,0,0.2,0c0,0,0,0,0,0l7.2,0.1c6.1,0,12.5-0.3,19.1-0.6c14.7-0.7,30.1-2,43.9-2.7
						c35.7-1.9,78.7-1.9,117.9-3.4c13.5-0.5,26.5-1.2,38.7-2.1c2.5-0.2,4.9-0.5,7.5-0.6c0.7,0,1.3,0,2,0c0.6,0,0.5,0.4,0.8,0.3
						C1916,169.1,1916.4,169.2,1916.5,169.1L1916.5,169.1z M1918.2,168.7c0.2,0,0.4-0.1,0.4-0.1S1918.4,168.6,1918.2,168.7z"/>
					<g transform="matrix(1.3436,0,0,1.26836,-271.535,-444.648)">
						<path class="st2" d="M571.6,519c0.5,0,1.1,0.1,1.8,0.1c1,0,1.7,0.2,1.7,0.5c0,0.3-0.8,0.5-1.7,0.5c-3.3,0.1-5-0.2-5.6-0.5
							c-1-0.4-0.5-1.1,2.2-1.7c4.3-1.1,14.2-2.2,19.3-2.2c15.9,0,44.9-1.5,67.8-1.2c12.3,0.2,22.8,0.8,29.1,2.5c4,1,3.5,2,1,3
							c-3.5,1.3-13.1,2.4-16.3,2.7c-10.5,0.9-27.5,1.4-44.5,1.3c-16.8-0.1-33.5-0.9-43.8-1.9c-1.8-0.2-3.9-0.8-5.3-1.4
							c-0.7-0.3-1.2-0.5-1.7-0.6c-0.2,0-0.5,0-0.7,0.1c0,0-0.1,0-0.1,0c0,0-0.1,0-0.1,0c0.2-0.3,1-0.4,2.1-0.2
							c1.8,0.3,4.3,1.3,6.4,1.4c10.3,0.8,26.7,0.9,43.2,0.8c16.2-0.1,32.5-0.5,42.5-1.4c2.2-0.2,8.4-0.8,12-1.6
							c1.4-0.3,2.5-0.6,1.1-1c-5.4-1.5-14.6-2.1-25.3-2.3c-22.7-0.4-51.7,1.1-67.5,1c-3.8,0-10.8,0.9-15,1.7
							C573.3,518.6,572.1,518.8,571.6,519z M571.3,519C571.1,519.1,571.1,519.1,571.3,519C571.5,519.1,571.4,519.1,571.3,519z"/>
					</g>
					<g transform="matrix(1,0,0,1,-1.39685,-38.4052)">
						<path class="st2" d="M-19.8,244c0.3,0,0.6,0,1,0c0.7,0,1.3-0.1,2.3-0.1c0.6,0,1.3,0,2.1,0.1c4.2,0.1,10,0.2,16.9,0.2
							c5.1,0,10.9,0.1,17,0.1c36.4,0.1,85.7-0.5,99.6-0.5c59.6-0.2,119.7-0.7,179.3-1.8c39.8-0.8,79.5-1.8,118.7-3.4
							c12.6-0.5,25.1-1,37.7-1.4c29.5-0.9,59-1.6,88.5-2c29.6-0.4,59.2-0.5,88.8-0.6c12.7-0.1,25.3-0.1,38-0.2
							c56.2-0.2,112.5,0,168.8,0.7c140.2,1.6,280.6,5.4,420.4,9.6c0.2,0,0.3,0,0.3,0.1c0,0-0.2,0.1-0.3,0.1
							c-167.8-4.8-336.5-9.3-504.7-9.6c-39.4-0.1-78.7,0-118,0.6c-31.4,0.4-62.7,1.3-94.1,2.1c-7.8,0.2-15.6,0.4-23.5,0.6
							c-20.1,0.5-40.1,1.2-60.2,1.8c-13.3,0.4-26.7,0.9-40.1,1.3c-49.4,1.8-99.5,2.9-149.7,3.5c-50,0.6-100.2,0.6-150,0.5
							c-15.8-0.1-77.7,0.5-113.9-0.3c-8.3-0.2-15.2-0.4-19.9-0.7c-0.8,0-1.5-0.1-2.1-0.2c-0.9-0.1-1.2-0.3-1.9-0.4L-19.8,244
							c-0.8-0.1-1.4-0.2-1.7-0.3c-0.4-0.1-0.6-0.2-0.4-0.3c0,0,0.1,0,0.2,0c0.1,0,0.1,0,0.1,0c-0.1,0.1-0.1,0.2,0.1,0.3
							C-21.1,243.8-20.6,243.9-19.8,244z"/>
					</g>
					<g transform="matrix(1,0,0,1,-18.513,-15.7479)">
						<path class="st2" d="M-58.4,241.2c0.1,0,0.2,0,0.4,0c1.2,0,2.7-0.1,5-0.1c5-0.1,12.4-0.2,21.6-0.4c1.8,0,3.6,0,5.5-0.1
							c22.2-0.3,52.1-0.9,80.1-1.5c34.1-0.7,65.5-1.2,77.2-1.2c13.6,0,27.7-0.2,42-0.4c32.8-0.3,66.8-0.5,99.8-0.3
							c21.1,0.2,41.8,0.5,61.3,1.6c62.6,3.4,132.2,5.2,201.8,5.1c69.5,0,139.1-1.8,202-5.3c0.8,0,1.6,0.1,1.7,0.3
							c0.2,0.2-0.3,0.4-1.1,0.5c-63,3.6-132.8,5.6-202.6,5.8c-70.1,0.3-140.1-1.1-203.4-4.3c-19.1-0.9-39.3-1.3-59.8-1.2
							c-32.8,0.2-66.3,1.8-98.7,2.5c-14.7,0.3-29.2,0.4-43.1,0.4c-13.3,0-52.2,0.7-91.5,1.1C17.9,244-4.1,244-21.9,244
							c-3.3,0-6.4,0-9.3-0.1c-9.3-0.2-16.9-0.4-21.9-0.8c-4.8-0.4-7.1-0.9-7.9-1.3c-0.2-0.5-0.5-0.6,0.4-0.6c0.2,0,0.5-0.1,0.9,0
							C-59.4,241.2-58.9,241.2-58.4,241.2z"/>
					</g>
					<path class="st2" d="M1963.8,213.8c143.6-8,175.2-6.3,39,2.6c132.3,9.7,93,17.2-39.9,2.5l-0.2,0c-1.3,0.1-2.5,0.2-3.8,0.2
						c-11.3,0.3-22.7-0.1-34.1-0.2c-50.2-0.4-100.3-1.4-150.6-1.6c-15.6-0.1-31.2-0.1-46.9,0c-26.7,0.2-53.3,0.2-79.9,0.1
						c-39.9-0.1-79.8-0.4-119.7-0.7c-3.3,0-8.9,1-11.9,1.3c-1.6,0.2-2.6,0.1-2.4-0.3c0,0,0.1,0,0.1,0c0.1,0,0.1,0,0.1,0
						c-0.1,0.4,0.7,0.4,2,0.2c3.1-0.4,8.7-1.5,12.1-1.6c39.9-0.3,79.6-0.6,119.5-1c26.5-0.3,52.9-0.7,79.5-1.2
						c31.6-0.6,63.1-0.8,94.7-0.9c37.7-0.1,75.4,0,113.1,0c7.5,0,15-0.1,22.5,0c1.9,0,3.7,0.2,5.6,0.2L1963.8,213.8z"/>
					<path class="st2" d="M1039.5,238.5l-0.1-0.1c0,0-0.1,0-0.2,0c-0.1,0-0.1,0-0.1,0l0.1,0.1
						C1039.3,238.6,1039.4,238.6,1039.5,238.5C1039.5,238.6,1039.5,238.5,1039.5,238.5z"/>
					<path class="st2" d="M1161,240c-0.9-0.1-1.6-0.1-2.3,0c-1.4,0.1-2.3,0.4-4.1,0.3c-0.7,0-1.3,0.2-1.3,0.3c0,0.2,0.6,0.3,1.3,0.3
						c2.5-0.1,3-0.6,5-0.8C1160.1,240.1,1160.5,240.1,1161,240c0,0.1,0.1,0.1,0.1,0C1161.2,240.1,1161.1,240,1161,240z"/>
					<path class="st2" d="M1287,241.1l-0.3-0.1c0,0,0,0,0,0s0,0,0,0c-0.4,0-0.4,0-0.4,0.1c0.1,0,0.3,0,0.4,0.1
						C1286.8,241.2,1286.9,241.2,1287,241.1C1287,241.2,1287,241.2,1287,241.1z"/>
					<g transform="matrix(1,0,0,1,-0.49257,1.23795)">
						<path class="st2" d="M815.6,218.4c-0.3,0.1-0.2,0.1,0.3,0.2c0.7,0,2.1,0,2.4,0l13.7-0.1l31.6-0.9c9.2-0.2,18.7-0.3,28.2-0.2
							c11,0.1,22,0.4,33,0.6c11.3,0.2,22.5,0.4,33.4,0.5c22.1,0.2,43.7,1,65.4,1.6c9.4,0.3,18.9,0.5,28.3,0.7
							c13.6,0.3,27.2,0.5,41,0.7c15,0,30,0,45.1-0.1c17.5-0.1,35-0.3,52.5-0.6c17.5-0.2,35-0.4,52.4-0.7c0.4,0,0.7-0.1,0.7-0.2
							c0-0.1-0.4-0.2-0.8-0.2c-12.4,0-24.9,0-37.4-0.1c-12.4-0.1-24.9-0.3-37.3-0.5c-24.9-0.5-49.6-1.2-74.2-2
							c-16.2-0.4-32.2-1-48.2-1.5c-10.8-0.3-21.7-0.6-32.5-0.8c-18.3-0.4-36.6-0.5-55-0.3c-11.1,0.1-22.6,0.1-34.1,0.3
							c-7.7,0.1-15.3,0.2-23,0.4c-13,0.3-25.8,0.6-38.1,1.3l-31.2,1.6l-13.5,0.3l-2.6,0c0.1,0,0.1,0,0,0
							C815.7,218.4,815.7,218.4,815.6,218.4z"/>
					</g>
				</g>
			</g>
		</g>
	</g>
</g>
<g transform="matrix(1.09848,0,0,1.09848,-19.9935,-168.758)" class="st3">
	<g id="WOOD_1_" class="st4">
		<path class="st0" d="M1768.5,997.2l0.8,0l9.3,280.6c-75.3,0.6-166.3,2.2-273.5,2.1c-99.7,0-217.2-3.4-371.8-3.9
			c-205.5-0.7-391.4,2.7-568.1,3.5c-36.4,0.2-200-3.2-234.2-3.4c-148.9-0.8-261.2-2.1-316.9,0c-4.1,0.2-2.2-247.1-2-267.5l-0.8,0
			l-0.1-10.5c-4.7-1,268.4,5.9,335.1,4c159.1-4.7,525.5-2.3,576.1-1.8c10.9,0.1,103.6,0.1,188.5-1c84.9-1,240.7-4.7,439.5-2.9
			c63.5,0.6,217.9-5.1,217.9-5.1L1768.5,997.2z"/>
		<g>
			<defs>
				<path id="SVGID_3_" d="M1768.5,997.2l0.8,0l9.3,280.6c-75.3,0.6-166.3,2.2-273.5,2.1c-99.7,0-217.2-3.4-371.8-3.9
					c-205.5-0.7-391.4,2.7-568.1,3.5c-36.4,0.2-200-3.2-234.2-3.4c-148.9-0.8-261.2-2.1-316.9,0c-4.1,0.2-2.2-247.1-2-267.5l-0.8,0
					l-0.1-10.5c-4.7-1,268.4,5.9,335.1,4c159.1-4.7,525.5-2.3,576.1-1.8c10.9,0.1,103.6,0.1,188.5-1c84.9-1,240.7-4.7,439.5-2.9
					c63.5,0.6,217.9-5.1,217.9-5.1L1768.5,997.2z"/>
			</defs>
			<clipPath id="SVGID_4_">
				<use xlink:href="#SVGID_3_"  style="overflow:visible;"/>
			</clipPath>
			<g class="st5">
				<g>
					<path class="st2" d="M-5.5,1007c0,0,238.2,4.4,304.9,3c66.7-1.4,174.3-1.4,344.2-4c187.1-2.9,423.9,1.8,515.3-0.3
						c91.3-2.1,279-5.5,421.4-1.9c142.4,3.6,218.6-6.7,218.6-6.7l-4.1-27.7L-6.2,975.7L-5.5,1007z"/>
				</g>
				<g id="Calque4_1_">
					<g transform="matrix(1,0,0,1,-3.92781,-0.192282)">
						<path class="st2" d="M-42.9,1056.2c8.1,0.7,15.5,1.6,23.8,2.1c8,0.4,16.3,0.5,24.4,0.6c64.9,1.4,129.9,1.3,195.2,1.6
							c63.5,0.2,126.8,0.1,190.1-0.3c17.7-0.1,35.5-0.2,53.2-0.4c41.4-0.4,82.6-1.4,123.9-1.8c88.4-0.9,177-0.8,265.6-0.9
							c114-0.1,228.1-0.1,342.2-0.4c48.8-0.1,97.7-0.4,146.5-0.4c85.3,0,170.3-0.2,255.3,0.2c34.1,0.2,68.1,0.5,102.2,0.8
							c51.1,0.4,102.2,0.8,153.4,1c9.5,0,19,0.2,28.4,0.1c5.7-0.1,11.4-0.1,17-0.5c4.1-0.2,7.3-0.7,11.3-1c4.3,0,7.7-1,7.6-2.1
							c-0.1-1.1-3.7-2-8-2c-4-0.3-7.3-0.7-11.4-0.9c-5.6-0.3-11.3-0.3-17-0.3c-85.2-0.3-170,1.7-255,1.6c-28.4,0-56.7-0.2-85.1-0.4
							c-66.1-0.4-132.3-1.2-198.6-1.6c-48.9-0.3-97.9-0.6-146.9-0.5c-114.1,0.3-228.2,1.8-342.2,2.6c-84.5,0.6-168.7,1.9-253,2.2
							c-50.6,0.2-101.2-0.3-151.8-0.3c-75.7,0-151.5,0.3-227.4-0.2c-73.1-0.1-145.5-1.8-218.5-1.2c-8.5,0.1-16.2,0.6-24.7,0.9
							c-1.4,0-2.7,0.2-2.9,0.6C-45.3,1055.8-44.3,1056.1-42.9,1056.2z"/>
					</g>
					<path class="st2" d="M1101.9,1003c1.6,0.4-2.3-0.2-5.8-0.4c-1.4-0.1-2.7-0.1-3.6,0l-23.7,0.7c-14.8,0.9-31.2,0.9-46.7,1.5
						c-7,0.2-13.9,0.6-20.3,1.1c-18.6,1.7-38.1,2.7-57.9,3.4c-46.2,1.7-94.2,2-138.6,5.2c-0.2,0-0.3,0.1-0.2,0.1
						c0,0,0.2,0.1,0.4,0.1c44.8-2.7,92.9-2.4,139.2-3.8c20.3-0.6,40.2-1.6,59.3-3.2c6.1-0.6,12.5-0.9,19.1-1.2
						c15.6-0.7,32.1-1,46.8-2.1l23.4-0.9c0.9-0.1,2.5,0,4.1,0c2.1,0,4.1-0.1,4.8-0.1c0.6-0.1,0.9-0.2-0.1-0.3
						C1102,1003,1102,1003,1101.9,1003C1101.9,1003,1101.9,1003,1101.9,1003z"/>
					<path class="st2" d="M1607.4,1095.3c0,0-0.1,0-0.1,0C1607.5,1095.3,1607.5,1095.3,1607.4,1095.3L1607.4,1095.3c0,0,0,0-0.1,0
						l1.3,0c0.1,0,0.2,0,0.2,0c0,0-0.1,0-0.2,0c-0.4,0-1.6-0.1-1.4-0.1C1607.2,1095.4,1607.3,1095.4,1607.4,1095.3z"/>
					<path class="st2" d="M495.3,1058.7L495.3,1058.7c0.1,0.1,0.1,0.1,0.2,0.1c0.1,0,0.1,0,0.1,0l0-0.1c0,0-0.1,0-0.1,0
						C495.4,1058.7,495.3,1058.7,495.3,1058.7z"/>
					<path class="st2" d="M528.6,1040.8l47.9-3.2c12-0.9,24.7-1.5,37.6-2c19.3-0.7,39-1.1,57.5-1.6c48.7-1.2,98.5-1.9,148.3-1.8
						c49.8,0.1,99.5,1,147.9,2.7c73.7,2.7,148.1,5.1,222.8,6.6c32,0.6,64,1.1,96,1.4c32.1,0.3,64.1,0.4,96.2,0.4
						c75-0.1,149.8-1.1,224.2-3c29.4-0.8,59-1.9,88.5-3.3c44-2.1,87.9-4.6,131.2-6.7c1.1,0,1.8-0.3,1.6-0.6
						c-0.2-0.3-1.2-0.5-2.3-0.4c-50.8,2-102.5,4.4-154,6.3c-22.1,0.8-44.2,1.5-66.1,2c-74.1,1.6-148.6,2.2-223.2,2.1
						c-31.9-0.1-63.8-0.2-95.7-0.5c-31.9-0.3-63.8-0.7-95.7-1.1c-74.7-1.1-149.1-2.6-222.9-4.7c-48.8-1.5-98.7-2-148.7-1.9
						c-49.9,0.1-99.8,0.9-148.5,2.2c-18.5,0.5-38.2,0.9-57.5,1.7c-13,0.5-25.7,1.2-37.7,2.2c-15.9,1.3-34.7,2.4-43.1,3
						c-3.2,0.2-4.9,0.4-4.6,0.5C528.5,1040.9,528.5,1040.9,528.6,1040.8C528.6,1040.8,528.7,1040.8,528.6,1040.8z"/>
					<path class="st2" d="M1503,1016.4c2.1,0.1,3.7,0.6,3.7,1.2c0.6,0.9,0.1,1.7-1.7,2.5c-0.7,0.3-1.7,0.5-2.7,0.8
						c-1.6,0.4-3.4,0.7-5.4,1c-5.4,0.9-12.4,2-21.4,2.5c-3.7,0.2-7.7,0.3-11.9,0.5c-10.7,0.3-22.5,0.4-34.4,0.5
						c-29.2,0.2-58.8-0.3-72-1.4c-5-0.4-7.9-1-9-1.5c-7-3,6.3-6,28.9-7.9c2.4-0.2,4.8-0.4,7.3-0.6c9.2-0.6,19.5-0.9,29.7-1.2
						c25.1-0.7,49.5-0.5,57.4,0c5.8,0.4,15,0.3,21.3,1.1C1497.9,1014.4,1501.6,1015.3,1503,1016.4z M1494,1019
						c-1.3-0.4-2.4-0.7-3.1-0.9c-0.2-0.1-0.6,0.1-0.9,0c-0.8-0.1-1.9,0-2.9-0.1c-6.2-0.4-14.5-0.6-19.8-1
						c-8.1-0.5-35.1-0.5-60.7,0.2c-6.3,0.2-12.5,0.4-18.4,0.6c-2.7,0.1-5.3,0.2-7.8,0.3c-8.6,0.3-16,0.6-20.9,1.3
						c-3.4,0.5-5.5,1.1-4.1,1.9c0.4,0.2,2.1,0.4,4.4,0.6c12.9,1.2,42.3,1.9,70.7,1.4c15.1-0.3,29.7-1.3,41.8-2.1
						c1.5-0.1,3-0.2,4.5-0.3c6.2-0.4,11.6-0.8,15.2-1.5C1492.9,1019.4,1493.5,1019.2,1494,1019z"/>
					<g transform="matrix(1,0,0,1,5.42671,-24.7659)">
						<path class="st2" d="M-42.5,1136.3c6.1,0.9,9.7,2,16.4,2.5c49,4,102.3,1.5,153.5,1.6c92.6,0.3,185.3-0.5,278-1.3
							c39.6-0.4,79.2-0.8,118.8-1.1c19.8-0.2,39.5-0.5,59.3-0.6c106.8-0.6,213.7,0.1,320.6-0.2c71.2-0.2,142.5-0.4,213.7-0.9
							c131.9-0.8,263.8-2.2,395.6-3.4c35.7-0.5,71.2-1.3,106.8-1.6c52.4-0.5,104.8-0.7,157.2-0.2c5.9,0.1,11.6,0.3,17.5,0.3
							c24.9,0.2,49.8-0.2,74.7-0.2c7.1,0,14.2,0,21.3-0.1c10.7-0.1,21.3-0.2,31.9-0.5c12-0.3,23.5-0.9,35.5-1.3c4.5,0,8.1-1,8.1-2.1
							c0-1.2-3.6-2.1-8.1-2.1c-12-0.5-23.7-1-35.8-1.3c-10.7-0.2-21.5-0.3-32.2-0.3c-7.2,0-14.3,0.1-21.4,0.1
							c-25,0.2-50.1,0.3-74.9,0.9c-5.9,0.2-11.5,0.5-17.4,0.7c-52.1,1.5-104.4,2.5-156.8,3.2c-35.6,0.4-71.2,0.3-106.8,0.4
							c-118.7,0.6-237.3,0.9-356,1.4c-29.7,0.1-59.3,0.3-89,0.5c-59.3,0.4-118.7,0.7-178,1.1c-89,0.7-178,1.6-267,2.2
							c-13.2,0.1-26.4,0.2-39.6,0.2c-19.8,0-39.6-0.1-59.4-0.2c-51,0-102,0.1-153.1,0.3c-118.7,0.5-237.6,1-356-0.7
							c-13.1-0.2-26.4-1.1-39.4-0.6c-6.9,0.3-11,1.2-17.5,1.8c-1.4,0-2.7,0.3-2.8,0.6C-45,1136-43.9,1136.3-42.5,1136.3z"/>
					</g>
					<path class="st2" d="M-97.3,1023.1c0.4-0.3,1.5-0.3,2.8,0c15.8,0.1,60.7,0.7,106.1,2c20.4-0.8,29.8-0.1,28.3,0.9
						c8.1,0.3,16.1,0.6,23.6,0.9c12.7,0.5,24.3,1.3,34.2,1.9c18.5,1.1,31.2,2.4,34,3.8c2,1-0.4,2.2-7.2,2.9
						c-10.4,1.1-31.8,1.5-35.8,1.8c-9.3,0.6-20.7,0.2-30.8,0.5c-2.4,0.1-4.7,0.2-6.9,0.4c-6.7,0.6-14.8,0.9-23.3,1
						c-11.9,0.2-24.5,0.1-34.7,0.1c-1.2,0-2.1-0.2-2.1-0.6c0-0.3,0.9-0.6,2.1-0.6c10.1,0,22.5,0,34.3-0.3c8-0.2,15.6-0.5,21.9-1.1
						c2.5-0.2,5.2-0.4,8-0.5c9.8-0.3,20.9,0,29.9-0.6c2.6-0.2,12.8-0.5,22.3-1c4.6-0.2,9-0.5,12.3-0.9c1-0.1,2.5-0.2,3.2-0.3
						c-2.7-1.2-13.5-2.1-28.7-2.9c-9.9-0.5-21.6-0.7-34.1-1.1c-16.2-0.4-33.9-0.8-51.5-1.1l-4.4,0.1c-2.5,0-2.4,0-4.9,0.1l-1.2,0
						c-0.4,0-0.9,0-1.5,0c-0.2,0-0.7,0-1.5,0l-1.1,0c-1.2,0-3.6,0-6.9,0c-12.2-0.1-36.1-0.2-56-0.5c-9.4-0.1-18-0.3-24-0.5
						c-5.5-0.1-9.2-0.2-9.9-0.3c-8.8-0.5-6.1-2.8-5.3-3.1c0.5-0.2,1.8-0.8,5.5-1c0.3,0,1,0,2.1,0L-97.3,1023.1L-97.3,1023.1
						c-0.1,0.2,1.2,0.2,3.4,0.2l-0.1,0l-0.4-0.1l-0.2,0L-97.3,1023.1z M125.2,1033.3c0.3-0.1,0.4-0.1,0.2-0.1
						C125.2,1033.1,125.2,1033.2,125.2,1033.3z"/>
					<path class="st2" d="M-15.5,1017.4c0.3,0,0.7-0.1,1.1-0.1c1.2,0,0.8,0.3,2.1,0.4c1.3,0.1,2.7,0.1,4.3,0.1
						c7.6,0,17.8-0.1,29.6-0.1c17.2,0.1,37.6,0.1,57,0.4c11.1,0.2,22,0.3,31.8,0.6c12.9,0.3,24,0.7,31.6,1
						c14.8,0.5,29.7,0.9,44.6,1.2c20.8,0.4,41.6,0.7,62.3,1c13.9,0.2,27.7,0.4,41.3,0.8c34.3,1.2,81.4,2.6,125.9,2.8
						c17.6,0.1,34.8,0,50.6-0.5c12-0.4,23.1-1,33.2-1.7c0.5,0,0.8-0.2,0.7-0.3c-0.1-0.1-0.6-0.2-1.2-0.2
						c-10.1,0.6-21.3,0.9-33.1,1.1c-15.8,0.3-32.8,0.4-50.1,0.3c-44.3-0.3-91-1.9-125-3.3c-14.6-0.7-29.5-1.2-44.5-1.5
						c-34.4-0.8-69.5-0.8-103.8-1.7c-8-0.2-19.7-0.5-33.3-0.9c-23.7-0.7-53-2-78-2.3c-15.5-0.2-29.4-0.2-39.2,0.4
						c-2.7,0.2-5.3,0.2-7,0.6c-1.1,0.3-0.4,0.4-1.3,0.6c-0.3,0.1-0.8,0.1-1.2,0.1c-1.4,0.1-2.1,0.5-1.7,0.9
						C-18.3,1017.3-16.9,1017.5-15.5,1017.4z"/>
					<path class="st2" d="M-9.2,1047.5c0.7,0.4,7.4,1,16.6,1.1c11.4,0.1,26.6-0.5,34.3-0.9c19.7-0.9,39.9-1.3,59.8-1.7
						c5.1-0.1,10.2-0.1,15.2-0.2c6.4-0.2,12.6-0.6,18.8-1c10.9-0.6,22.8-1.5,34.5-2.2c7.8-0.5,15.5-1,22.9-1.1
						c0.7,0,1.3-0.2,1.3-0.3c0-0.2-0.6-0.3-1.3-0.3c-5.8-0.1-11.9-0.1-18.1,0.2c-13.7,0.5-27.7,1.7-40.5,2.4
						c-6.5,0.3-13,0.4-19.5,0.6c-2.8,0.1-5.5,0.3-8.3,0.4c-21.9,0.7-44.3,0.5-66.2,1.4l-45.2,1c-0.7-0.3-2.3-0.4-3.6-0.2
						C-9.5,1046.8-9.9,1047.2-9.2,1047.5z"/>
					<path class="st2" d="M415,1058.8c0.8-0.4,12.5-0.1,25.9,0.3c15.9,0.5,34,1.2,38.7,1.5c11.2,0.7,22.3,1.3,33.4,1.7
						c11.2,0.5,22.5,0.8,33.8,1c52,1.2,104.1,1.2,158,2.2c0.3,0,0.5,0,0.5-0.1c0-0.1-0.2-0.1-0.4-0.1c-46-1.2-90.7-1.7-135.1-2.8
						c-14.9-0.4-29.8-0.9-44.8-1.4c-14.8-0.5-29.7-1-44.5-1.7c-5.5-0.2-28.7-0.8-46-1c-10.7-0.1-19.1-0.1-19.7,0.2c0,0,0,0,0,0
						C414.9,1058.8,415,1058.8,415,1058.8z"/>
					<g transform="matrix(0.91035,0,0,0.91035,18.2011,153.629)">
						<path class="st2" d="M760.8,1082.4c0.3,0.1,0.5,0.3,0.7,0.4c0.8,0.6,0.1,1.1-0.9,1.6c-1.3,0.7-4.4,1.2-8.1,1.6
							c-5,0.5-11.6,0.7-18,0.9c-7.2,0.2-14.1,0.3-17.1,0.4c-8.4,0.3-17.1-0.2-25.7-0.1c-2,0-4,0.1-6,0.2c-5.6,0.3-11.2,0.5-17,0.6
							c-5.6,0.1-11.3,0-17,0c-17.1-0.2-34.3-0.7-50.5-1.1c-5.5-0.1-13.3,0-20.7-0.1c-3.4,0-6.7-0.1-9.8-0.3
							c-4.6-0.3-8.6-0.8-11.6-1.7c-0.8-0.2-1.4-0.5-2-0.8c-3.7-1.9-1.3-3.5,5.4-4.7c11.3-2,40.6-2.6,46.9-2.6
							c26.8,0.1,53.7-0.4,80.4,0c11.6,0.2,23.2,0.6,34.7,1.2c6.3,0.3,17.9,0.2,26.5,0.9c4.7,0.4,8.6,1.1,10.6,2
							c0.4,0.2,1.3,0.9,1,1.3c0,0.1,0,0.2-0.2,0.2C761.1,1082.5,762.2,1082.5,760.8,1082.4L760.8,1082.4z M757.5,1081.4
							c-1-0.3-2.4-0.5-3.9-0.6c-2.3-0.3-4.9-0.4-7.7-0.5c-8.1-0.2-17.4,0.1-22.8-0.1c-15-0.5-30-0.5-45-0.4
							c-22.8,0.1-45.7,0.3-68.6,0.3c-3.6,0-15.5,0.2-26.1,0.8c-4.3,0.2-8.5,0.5-11.6,0.9c-0.9,0.1-1.7,0.2-2.3,0.4
							c-0.2,0-0.6,0.1-0.5,0.1c1.7,1.3,6.6,2,12.2,2.4c7.2,0.5,15.2,0.5,20.6,0.7c13.5,0.4,27.6,0.8,41.8,1c8.4,0.1,16.7,0,25-0.1
							c5.6,0,11.1-0.1,16.6-0.2c7.4-0.3,15,0,22.5,0c3,0,6.1,0,9-0.2c4.6-0.3,18.6-0.5,28.4-1.5c3.3-0.3,5.6-0.8,7.1-1.3
							c0.9-0.3,2.3-0.4,1.9-0.9c-0.6-0.3-0.1-0.7,1.1-0.9C755.9,1081.2,756.8,1081.3,757.5,1081.4z"/>
					</g>
					<g transform="matrix(0.91035,0,0,0.91035,18.2011,153.629)">
						<path class="st2" d="M25.3,1041.6l-0.4-0.1c-0.3-0.3-1.6-0.3-3.1-0.3c-2.4,0-5.1,0.1-6.5,0.1l-25.6-0.3
							c-6.9,0-13.5,0.1-20.1,0.3c-16.4,0.6-32,1.6-48.7,1.9c-4.8,0-8.7-1-8.7-2.3s3.9-2.3,8.7-2.3c16.3,0.3,31.9-0.1,48-0.1
							c7.1,0,14.2,0.1,21.5,0.3l25.7,1.1c1.6,0.1,5.3,0.2,7.5,0.6c1.5,0.3,2.5,0.5,2.1,0.9L25.3,1041.6L25.3,1041.6
							c0.1,0,0.2,0,0.2,0L25.3,1041.6L25.3,1041.6C25.2,1041.6,25.2,1041.6,25.3,1041.6L25.3,1041.6z"/>
					</g>
					<path class="st2" d="M321,1131.4l1.9,0c17.5,0,35.1-0.6,52.7-1.3c41.1-1.7,82.4-4.7,122.6-6.2c19.4-0.5,38.8-0.8,58.3-1
						c29.1-0.3,58.3-0.4,87.4-0.1c72.8,0.7,145.5,3,217.1,5.4c17.7,0.6,35.8,0.9,54,1c42.3,0.3,85.5-0.2,127-0.1
						c1.1,0,1.9,0.2,1.9,0.5s-0.9,0.5-1.9,0.5c-35.6,0.1-72.4,0.6-109,0.6c-24.6,0-49-0.3-72.8-1.1c-71.5-2.3-144-4.7-216.6-5.3
						c-29-0.2-58-0.3-86.9,0.2c-19.2,0.3-38.4,0.9-57.5,1.6c-40.2,1.2-81.7,4-122.7,5.5c-18,0.7-35.9,1.1-53.7,1.1
						c-0.5,0-1.9,0-2.7,0c-0.9,0-1.6-0.1-2-0.2c-1-0.3-1-0.7,0-1C318.9,1131.4,320,1131.3,321,1131.4z"/>
					<path class="st2" d="M1781.4,1115.3c-1.7-0.3-17.7-0.5-37.8-0.3c-32.4,0.4-75.9,1.7-84.2,1.9c-21.4,0.8-42.6,1.9-64,2.8
						c-24.8,1.1-49.8,1.9-74.6,2.9c-24.9,1-49.7,2.1-74.6,2.9c-30.6,1-61.2,1.6-92,1.7c-0.5,0-0.9,0.1-0.9,0.2s0.4,0.2,0.9,0.2
						c30.8,0.1,61.6-0.5,92.4-1.3c25-0.7,50-1.4,75-2.4c24.9-0.9,49.7-2.2,74.6-3c21.4-0.7,42.9-1.1,64.3-1.4l118.2-3.1
						c1.2,0.2,2.8,0.1,3.6-0.2C1783,1115.9,1782.6,1115.5,1781.4,1115.3z"/>
					<path class="st2" d="M-31,1074.3c11-2.2,12.3-3.3,21-3.8c5.1-0.3,12.6-0.4,26.1-0.3c19.9,0.1,39,0.2,57.3,0.4
						c20,0.1,39.1,0.3,57.2,0.5c42.6,0.4,80.4,0.8,114.4,1.7c101.1,2.4,168.2,6.3,228,6.9c0.5,0,0.9-0.1,1-0.2
						c0-0.1-0.4-0.2-0.9-0.3c-52.2-0.7-110-3.6-191.1-6.4c-25-0.8-52.2-1.7-82.2-2.5c-17.4-0.4-35.7-0.9-55-1.2
						c-11.9-0.2-24.1-0.3-36.8-0.4c-11.9-0.1-24.1-0.2-36.8-0.2c-17.6,0-36,0.1-55.2,0.2c-19.7,0.2-27.5,0.5-32.5,1.4
						c-4.8,0.8-6.9,2.1-14.7,4.3c-0.1,0-0.1,0,0,0C-31.2,1074.3-31.1,1074.3-31,1074.3z"/>
					<path class="st2" d="M-5,1093.5c-0.4-0.1-0.9-0.2-1.4-0.3c-7.2-1.4-19.1-3.7-19.9-4.8c-0.5-0.7,1.7-1.6,10.1-1.5
						c26.6,0.3,64.5,1.5,106,3.1c52.1,2,109.8,4.5,157.9,6c25.4,0.8,48.2,1.3,65.9,1.3c70,0,140.1-0.3,210.2-0.8
						c49-0.3,98.1-0.8,147.1-1.2c114.5-1,229-2,343.4-2.4c0.5,0,1,0.1,1,0.3c0,0.1-0.4,0.3-1,0.3c-114.4,0.8-228.8,2.3-343.2,3.5
						c-49,0.5-98.1,1-147.2,1.4c-70.1,0.5-140.3,0.9-210.4,0.9c-17.9,0-40.9-0.5-66.7-1.3c-48.2-1.5-106-3.9-158.1-6
						c-41.2-1.7-78.8-3.1-105.3-3.6c-1.9,0-3.3,0-4.4,0c-0.3,0-0.6,0-0.8,0.1c0.1,0,0.3,0.1,0.5,0.2c0.7,0.3,1.7,0.6,3,0.9
						c6.5,1.6,17.9,3.6,19.4,4.3c0.6,0.3,0.5,0.5,0.2,0.7c-0.3,0.2-0.9,0.3-2.2,0.4c-0.7,0-2,0-3.9-0.1l-25.5-1.5
						c-2.3-0.1-7-0.7-9.4-0.9c-1.1-0.1-1.7-0.1-1,0.1c0,0,0,0,0,0c-0.1,0-0.1,0-0.2,0c-1.1-0.3-0.4-0.4,1.3-0.3
						c2.5,0.1,7.3,0.6,9.6,0.7L-5,1093.5z M-1.7,1093.6c0.3,0,0.6,0,0.5,0C-1.2,1093.5-1.4,1093.6-1.7,1093.6z"/>
					<path class="st2" d="M1791,1067.3c0.8-0.1,1.6-0.3,2.4-0.4c1.6-0.2,3.2-0.3,4.6-0.4c1.4-0.1,2.5,0,3.7,0.2
						c1,0.2,0.9,0.4,0.8,0.6c-0.1,0.3-1.5,0.5-2,0.5c-5.1,0.4-10.3,0.7-15.6,0.9l-0.5,0.1c0,0-0.1,0-0.2,0c0,0,0,0,0,0l0.2-0.1
						c-3.1,0.1-6.3,0.3-9.4,0.4c-12.8,0.4-25.9,0.5-38.5,0.7c-18.2,0.1-35.9,0.4-53.5,0.8c-26.6,0.5-53.1,1-80.4,1.6
						c-39.8,0.7-79.8,1.1-119.9,1.1c-46.5,0-93.1-0.5-139.7-0.9c-46.6-0.4-93.2-0.7-139.6-0.9c-0.5,0-0.8-0.1-0.8-0.2
						c0-0.1,0.4-0.2,0.8-0.2c39.8-0.1,79.7,0,119.7,0c39.9,0,79.8-0.1,119.6-0.3c26.6-0.1,53.1-0.4,79.6-0.7
						c26.5-0.3,53-0.6,79.4-1.2c22.8-0.5,45-1,67.3-1.3c22.3-0.3,44.7-0.4,67.7-0.2c12.4,0.2,25.3,0.4,38.1,0.3
						C1780,1067.6,1785.6,1067.5,1791,1067.3z M1799.5,1066.9c-1-0.2-2.5-0.2-4.1-0.1c-1.2,0.1-2.5,0.3-3.7,0.4
						C1794.3,1067.2,1796.9,1067.1,1799.5,1066.9z M1799.6,1067l0.5,0.1C1799.9,1067,1799.7,1067,1799.6,1067z"/>
					<path class="st2" d="M1792.9,1084.5c0.6-0.1,0.3-0.2-0.6-0.2c-1.4-0.1-4.2-0.1-4.8-0.1c-2,0.1-4,0.3-6.2,0.3
						c-2.1,0.1-4.1,0.1-6.2,0.1c-7.6,0.1-15.4,0.2-23.2,0.5c-5.3,0.2-10.4,0.4-15.5,0.6c-4.1,0.2-8.2,0.3-12.4,0.4
						c-10.5,0.2-21.1,0.1-31.4,0.4c-10.5,0.5-21,1-31.6,1.3c-10.6,0.3-21.3,0.6-32,0.9c-0.3,0-0.5,0.1-0.5,0.1
						c0,0.1,0.3,0.1,0.5,0.1l64.5-0.1c10.2-0.2,20.7,0.1,31-0.1c4.8-0.1,9.5-0.2,14.1-0.5l37.1-2.4c1.3-0.1,2.5-0.2,3.8-0.4
						c2.9-0.3,5.7-0.7,8.2-1.1l4.9,0c-0.1,0-0.1,0,0,0C1792.7,1084.5,1792.8,1084.5,1792.9,1084.5z"/>
				</g>
			</g>
		</g>
	</g>
</g>
</svg>
