<?xml version="1.0" encoding="utf-8"?>
<!-- Generator: Adobe Illustrator 23.0.6, SVG Export Plug-In . SVG Version: 6.00 Build 0)  -->
<svg version="1.1" id="Calque_1" xmlns:serif="http://www.serif.com/"
	 xmlns="http://www.w3.org/2000/svg" xmlns:xlink="http://www.w3.org/1999/xlink" x="0px" y="0px" viewBox="0 0 382 351.9"
	 style="enable-background:new 0 0 382 351.9;" xml:space="preserve">
<style type="text/css">
	.st0{fill:#78C0B5;}
	.st1{fill:#00A48E;}
	.st2{fill:#00A690;}
	.st3{fill-rule:evenodd;clip-rule:evenodd;fill:#D3AD40;}
</style>
<g id="Layer-1" serif:id="Layer 1">
	<g>
		<g>
			<g transform="matrix(1,0,0,1,210.15,264.008)">
				<path class="st0" d="M-148.6-206.7l2,112.9l57.7-0.2l0.4-37.7l-31.7,4.2l-2.6-50.8l32.6,2.2l-0.2-36L-148.6-206.7z"/>
			</g>
			<g transform="matrix(1,0,0,1,313.781,270.112)">
				<path class="st0" d="M-178.9-219.6l0.2,119.8l55.3-2.7l4.5-38.8l-32.3,4.3l1.8-83.7L-178.9-219.6z"/>
			</g>
			<g transform="matrix(-0.000447372,1,1,0.000447372,585.268,307.089)">
				<path class="st0" d="M-191.5-375l199.1,0l-0.5,36.4l-201.4,0.2L-191.5-375z"/>
			</g>
			<g transform="matrix(-0.0466876,0.99891,0.99891,0.0466876,475.595,114.772)">
				<path class="st1" d="M-51.8-272.5h49.3L-3.4-235l-49.6-0.4L-51.8-272.5z"/>
			</g>
			<g transform="matrix(1,0,0,1,497.724,462.608)">
				<path class="st2" d="M-232.8-404.7l-2.6,256.2l69.8,0.1l-3.4-44.9l-37.1,1.9l4.6-174.9l35,1.9l0.9-49.1L-232.8-404.7z"/>
			</g>
			<g transform="matrix(1,0,0,1,314.299,472.256)">
				<path class="st1" d="M-179.1-288.9l0.5,36.3l17.4-0.1l0.7,95.3l26.7-0.3l-1.2-95.9l20.8-0.4l-1.5-37.9L-179.1-288.9z"/>
			</g>
			<g transform="matrix(1,0,0,1,209.721,473.292)">
				<path class="st1" d="M-148.5-286.9l-0.8,128.8l66.8-0.8l1.1-38.1l-39.1,0.4l0.3-18.6l22.7-0.6l-0.3-21.2l-24,1.9l-0.2-17.6
					l36.7-0.8l0.5-35.7L-148.5-286.9z"/>
			</g>
		</g>
		<g>
			<g transform="matrix(1.2964,-0.121841,0.121841,1.2964,-205.322,46.9723)">
				<g transform="matrix(-0.384937,-5.09264e-18,-1.47677e-17,0.359696,685.178,58.4256)">
					<path class="st3" d="M672-51.8c0,0-2.1-6.3-1.9-14.2c0.1-2.4,0.5-5,1.2-7.5c0.7-2.5,1.8-5,3.3-7.2c1.2-1.8,2.6-3.4,4.3-4.8
						c4.9-3.9,11.7-6.6,21.7-5.3c2.2,0.1,3.9,2,3.8,4.3c-0.1,2.3-1.8,4.1-4,4.1c-6.8,0.5-11.1,3-14,6.2c-1.2,1.3-2.1,2.9-2.9,4.4
						c-0.9,1.8-1.7,3.6-2.2,5.4c-2.1,6.8-2.3,13.2-2.3,13.2c0.4,2.1-0.9,4.1-2.9,4.5C674.2-48.3,672.4-49.7,672-51.8z"/>
				</g>
				<g transform="matrix(-0.656157,0,0,0.617438,743.874,26.9055)">
					<path class="st3" d="M464.8,16.6c0,0-1.7-6.1-1.2-13.6c0.2-2.3,0.6-4.6,1.3-6.9c0.7-2.3,1.7-4.5,3-6.6c2-3.1,4.8-5.7,8.5-7.5
						c4-1.9,9-3,15.4-2.4c1.3,0,2.3,1.2,2.2,2.5c0,1.3-1.1,2.4-2.3,2.4c-3.4,0.1-6.2,0.7-8.7,1.6c-4.6,1.6-7.4,4.4-9.4,7.6
						c-0.9,1.5-1.7,3.2-2.3,4.8c-0.7,1.8-1.2,3.7-1.5,5.4c-1.3,6.3-1,11.8-1,11.8c0.2,1.2-0.5,2.4-1.7,2.6
						C466.1,18.6,465,17.8,464.8,16.6z"/>
				</g>
			</g>
			<g transform="matrix(0.486706,1.20774,-1.20774,0.486706,419.258,-320.364)">
				<g transform="matrix(-0.384937,-5.09264e-18,-1.47677e-17,0.359696,685.178,58.4256)">
					<path class="st3" d="M648.5,502.3c0,0-2.1-6.3-1.9-14.2c0.1-2.4,0.5-5,1.2-7.5c0.7-2.5,1.8-5,3.3-7.2c1.2-1.8,2.6-3.4,4.3-4.8
						c4.9-3.9,11.7-6.6,21.7-5.3c2.2,0.1,3.9,2,3.8,4.3c-0.1,2.3-1.8,4.1-4,4.1c-6.8,0.5-11.1,3-14,6.2c-1.2,1.3-2.1,2.9-2.9,4.4
						c-0.9,1.8-1.7,3.6-2.2,5.4c-2.1,6.8-2.3,13.2-2.3,13.2c0.4,2.1-0.9,4.1-2.9,4.5C650.7,505.7,648.8,504.4,648.5,502.3z"/>
				</g>
				<g transform="matrix(-0.656157,0,0,0.617438,743.874,26.9055)">
					<path class="st3" d="M451,339.3c0,0-1.7-6.1-1.2-13.6c0.2-2.3,0.6-4.6,1.3-6.9c0.7-2.3,1.7-4.5,3-6.6c2-3.1,4.8-5.7,8.5-7.5
						c4-1.9,9-3,15.4-2.4c1.3,0,2.3,1.2,2.2,2.5c0,1.3-1.1,2.4-2.3,2.4c-3.4,0.1-6.2,0.7-8.7,1.6c-4.6,1.6-7.4,4.4-9.4,7.6
						c-0.9,1.5-1.7,3.2-2.3,4.8c-0.7,1.8-1.2,3.7-1.5,5.4c-1.3,6.3-1,11.8-1,11.8c0.2,1.2-0.5,2.4-1.7,2.6
						C452.3,341.3,451.2,340.5,451,339.3z"/>
				</g>
			</g>
			<g transform="matrix(-1.24153,-0.392565,0.392565,-1.24153,910.957,834.393)">
				<g transform="matrix(-0.384937,-5.09264e-18,-1.47677e-17,0.359696,685.178,58.4256)">
					<path class="st3" d="M-208.1,343.5c0,0-2.1-6.3-1.9-14.2c0.1-2.4,0.5-5,1.2-7.5c0.7-2.5,1.8-5,3.3-7.2c1.2-1.8,2.6-3.4,4.3-4.8
						c4.9-3.9,11.7-6.6,21.7-5.3c2.2,0.1,3.9,2,3.8,4.3c-0.1,2.3-1.8,4.1-4,4.1c-6.8,0.5-11.1,3-14,6.2c-1.2,1.3-2.1,2.9-2.9,4.4
						c-0.9,1.8-1.7,3.6-2.2,5.4c-2.1,6.8-2.3,13.2-2.3,13.2c0.4,2.1-0.9,4.1-2.9,4.5C-205.9,346.9-207.7,345.5-208.1,343.5z"/>
				</g>
				<g transform="matrix(-0.656157,0,0,0.617438,743.874,26.9055)">
					<path class="st3" d="M-51.5,246.8c0,0-1.7-6.1-1.2-13.6c0.2-2.3,0.6-4.6,1.3-6.9c0.7-2.3,1.7-4.5,3-6.6c2-3.1,4.8-5.7,8.5-7.5
						c4-1.9,9-3,15.4-2.4c1.3,0,2.3,1.2,2.2,2.5c0,1.3-1.1,2.4-2.3,2.4c-3.4,0.1-6.2,0.7-8.7,1.6c-4.6,1.6-7.4,4.4-9.4,7.6
						c-0.9,1.5-1.7,3.2-2.3,4.8c-0.7,1.8-1.2,3.7-1.5,5.4c-1.3,6.3-1,11.8-1,11.8c0.2,1.2-0.5,2.4-1.7,2.6
						C-50.2,248.8-51.3,248-51.5,246.8z"/>
				</g>
			</g>
			<g transform="matrix(-0.0741459,-1.30001,1.30001,-0.0741459,122.846,911.044)">
				<g transform="matrix(-0.384937,-5.09264e-18,-1.47677e-17,0.359696,685.178,58.4256)">
					<path class="st3" d="M36.2-197.9c0,0-2.1-6.3-1.9-14.2c0.1-2.4,0.5-5,1.2-7.5c0.7-2.5,1.8-5,3.3-7.2c1.2-1.8,2.6-3.4,4.3-4.8
						c4.9-3.9,11.7-6.6,21.7-5.3c2.2,0.1,3.9,2,3.8,4.3c-0.1,2.3-1.8,4.1-4,4.1c-6.8,0.5-11.1,3-14,6.2c-1.2,1.3-2.1,2.9-2.9,4.4
						c-0.9,1.8-1.7,3.6-2.2,5.4c-2.1,6.8-2.3,13.2-2.3,13.2c0.4,2.1-0.9,4.1-2.9,4.5C38.5-194.4,36.6-195.8,36.2-197.9z"/>
				</g>
				<g transform="matrix(-0.656157,0,0,0.617438,743.874,26.9055)">
					<path class="st3" d="M91.8-68.6c0,0-1.7-6.1-1.2-13.6c0.2-2.3,0.6-4.6,1.3-6.9c0.7-2.3,1.7-4.5,3-6.6c2-3.1,4.8-5.7,8.5-7.5
						c4-1.9,9-3,15.4-2.4c1.3,0,2.3,1.2,2.2,2.5c0,1.3-1.1,2.4-2.3,2.4c-3.4,0.1-6.2,0.7-8.7,1.6c-4.6,1.6-7.4,4.4-9.4,7.6
						c-0.9,1.5-1.7,3.2-2.3,4.8c-0.7,1.8-1.2,3.7-1.5,5.4c-1.3,6.3-1,11.8-1,11.8c0.2,1.2-0.5,2.4-1.7,2.6
						C93.1-66.6,92-67.4,91.8-68.6z"/>
				</g>
			</g>
		</g>
	</g>
</g>
</svg>
